<svg xmlns="http://www.w3.org/2000/svg" width="839pt" height="720pt" viewBox="18.80 18.80 839.40 720.40">
<g id="graph0" class="graph" transform="scale(1 1) rotate(0) translate(28.8 728.8)">
<title>logic</title>
<polygon fill="white" stroke="none" points="-28.8,28.8 -28.8,-728.8 848.45,-728.8 848.45,28.8 -28.8,28.8" />
<text xml:space="preserve" text-anchor="start" x="280.45" y="-684.65" font-family="Helvetica,sans-Serif" font-weight="bold" font-size="13.00">Logic Diagram — demo_customs_surtax</text>

<g id="node1" class="node">
<title>TRIGGER</title>
<polygon fill="#e8f5e9" stroke="none" points="113.02,-61.5 113.02,-94.5 270.52,-94.5 270.52,-61.5 113.02,-61.5" />
<text xml:space="preserve" text-anchor="start" x="122.02" y="-76.05" font-family="Helvetica,sans-Serif" font-weight="bold" font-size="11.00" fill="#27ae60">⚡ SurtaxLineItem inserted</text>
<polygon fill="none" stroke="#27ae60" stroke-width="2" points="114.02,-62.5 114.02,-93.5 269.52,-93.5 269.52,-62.5 114.02,-62.5" />
</g>

<g id="node6" class="node">
<title>SurtaxLineItem</title>
<polygon fill="#4a6fa5" stroke="none" points="419.15,-133 419.15,-149 654.4,-149 654.4,-133 419.15,-133" />
<text xml:space="preserve" text-anchor="start" x="494.02" y="-137.55" font-family="Helvetica,sans-Serif" font-weight="bold" font-size="11.00" fill="white"> SurtaxLineItem </text>
<polygon fill="#b8cce8" stroke="none" points="419.15,-115 419.15,-133 426.15,-133 426.15,-115 419.15,-115" />
<text xml:space="preserve" text-anchor="start" x="421.15" y="-121" font-family="Helvetica,sans-Serif" font-size="11.00"> </text>
<polygon fill="#dbe4f0" stroke="none" points="426.15,-115 426.15,-133 647.4,-133 647.4,-115 426.15,-115" />
<text xml:space="preserve" text-anchor="start" x="429.15" y="-121" font-family="Helvetica,sans-Serif" font-size="11.00" fill="#1a1a2e"> customs_value </text>
<polygon fill="#b8cce8" stroke="none" points="647.4,-115 647.4,-133 654.4,-133 654.4,-115 647.4,-115" />
<text xml:space="preserve" text-anchor="start" x="649.4" y="-121" font-family="Helvetica,sans-Serif" font-size="11.00"> </text>
<polygon fill="#b8cce8" stroke="none" points="419.15,-97 419.15,-115 426.15,-115 426.15,-97 419.15,-97" />
<text xml:space="preserve" text-anchor="start" x="421.15" y="-103" font-family="Helvetica,sans-Serif" font-size="11.00"> </text>
<polygon fill="#dbe4f0" stroke="none" points="426.15,-97 426.15,-115 647.4,-115 647.4,-97 426.15,-97" />
<text xml:space="preserve" text-anchor="start" x="429.15" y="-102.55" font-family="Helvetica,sans-Serif" font-size="11.00" fill="#1a1a2e"> base_duty_amount </text>
<text xml:space="preserve" text-anchor="start" x="526.65" y="-102.55" font-family="Helvetica,sans-Serif" font-size="11.00"> </text>
<text xml:space="preserve" text-anchor="start" x="529.65" y="-102.55" font-family="Helvetica,sans-Serif" font-size="9.00" fill="#e67e22">= (customs_value or 0</text>
<polygon fill="#b8cce8" stroke="none" points="647.4,-97 647.4,-115 654.4,-115 654.4,-97 647.4,-97" />
<text xml:space="preserve" text-anchor="start" x="649.4" y="-103" font-family="Helvetica,sans-Serif" font-size="11.00"> </text>
<polygon fill="#b8cce8" stroke="none" points="419.15,-79 419.15,-97 426.15,-97 426.15,-79 419.15,-79" />
<text xml:space="preserve" text-anchor="start" x="421.15" y="-85" font-family="Helvetica,sans-Serif" font-size="11.00"> </text>
<polygon fill="#dbe4f0" stroke="none" points="426.15,-79 426.15,-97 647.4,-97 647.4,-79 426.15,-79" />
<text xml:space="preserve" text-anchor="start" x="429.15" y="-84.55" font-family="Helvetica,sans-Serif" font-size="11.00" fill="#1a1a2e"> surtax_amount </text>
<text xml:space="preserve" text-anchor="start" x="506.4" y="-84.55" font-family="Helvetica,sans-Serif" font-size="11.00"> </text>
<text xml:space="preserve" text-anchor="start" x="509.4" y="-84.55" font-family="Helvetica,sans-Serif" font-size="9.00" fill="#e67e22">= (customs_value or 0</text>
<polygon fill="#b8cce8" stroke="none" points="647.4,-79 647.4,-97 654.4,-97 654.4,-79 647.4,-79" />
<text xml:space="preserve" text-anchor="start" x="649.4" y="-85" font-family="Helvetica,sans-Serif" font-size="11.00"> </text>
<polygon fill="#b8cce8" stroke="none" points="419.15,-61 419.15,-79 426.15,-79 426.15,-61 419.15,-61" />
<text xml:space="preserve" text-anchor="start" x="421.15" y="-67" font-family="Helvetica,sans-Serif" font-size="11.00"> </text>
<polygon fill="#dbe4f0" stroke="none" points="426.15,-61 426.15,-79 647.4,-79 647.4,-61 426.15,-61" />
<text xml:space="preserve" text-anchor="start" x="429.15" y="-66.55" font-family="Helvetica,sans-Serif" font-size="11.00" fill="#1a1a2e"> surtax_applicable </text>
<text xml:space="preserve" text-anchor="start" x="518.4" y="-66.55" font-family="Helvetica,sans-Serif" font-size="11.00"> </text>
<text xml:space="preserve" text-anchor="start" x="521.4" y="-66.55" font-family="Helvetica,sans-Serif" font-size="9.00" fill="#e67e22">= 1 if (customs_entry.surtax_...</text>
<polygon fill="#b8cce8" stroke="none" points="647.4,-61 647.4,-79 654.4,-79 654.4,-61 647.4,-61" />
<text xml:space="preserve" text-anchor="start" x="649.4" y="-67" font-family="Helvetica,sans-Serif" font-size="11.00"> </text>
<polygon fill="#b8cce8" stroke="none" points="419.15,-43 419.15,-61 426.15,-61 426.15,-43 419.15,-43" />
<text xml:space="preserve" text-anchor="start" x="421.15" y="-49" font-family="Helvetica,sans-Serif" font-size="11.00"> </text>
<polygon fill="#dbe4f0" stroke="none" points="426.15,-43 426.15,-61 647.4,-61 647.4,-43 426.15,-43" />
<text xml:space="preserve" text-anchor="start" x="429.15" y="-49" font-family="Helvetica,sans-Serif" font-size="11.00" fill="#1a1a2e"> customs_entry </text>
<polygon fill="#b8cce8" stroke="none" points="647.4,-43 647.4,-61 654.4,-61 654.4,-43 647.4,-43" />
<text xml:space="preserve" text-anchor="start" x="649.4" y="-49" font-family="Helvetica,sans-Serif" font-size="11.00"> </text>
<polygon fill="#b8cce8" stroke="none" points="419.15,-25 419.15,-43 426.15,-43 426.15,-25 419.15,-25" />
<text xml:space="preserve" text-anchor="start" x="421.15" y="-31" font-family="Helvetica,sans-Serif" font-size="11.00"> </text>
<polygon fill="#dbe4f0" stroke="none" points="426.15,-25 426.15,-43 647.4,-43 647.4,-25 426.15,-25" />
<text xml:space="preserve" text-anchor="start" x="429.15" y="-31" font-family="Helvetica,sans-Serif" font-size="11.00" fill="#1a1a2e"> is_steel_derivative </text>
<polygon fill="#b8cce8" stroke="none" points="647.4,-25 647.4,-43 654.4,-43 654.4,-25 647.4,-25" />
<text xml:space="preserve" text-anchor="start" x="649.4" y="-31" font-family="Helvetica,sans-Serif" font-size="11.00"> </text>
<polygon fill="#b8cce8" stroke="none" points="419.15,-7 419.15,-25 426.15,-25 426.15,-7 419.15,-7" />
<text xml:space="preserve" text-anchor="start" x="421.15" y="-13" font-family="Helvetica,sans-Serif" font-size="11.00"> </text>
<polygon fill="#dbe4f0" stroke="none" points="426.15,-7 426.15,-25 647.4,-25 647.4,-7 426.15,-7" />
<text xml:space="preserve" text-anchor="start" x="429.15" y="-13" font-family="Helvetica,sans-Serif" font-size="11.00" fill="#1a1a2e"> base_duty_rate </text>
<polygon fill="#b8cce8" stroke="none" points="647.4,-7 647.4,-25 654.4,-25 654.4,-7 647.4,-7" />
<text xml:space="preserve" text-anchor="start" x="649.4" y="-13" font-family="Helvetica,sans-Serif" font-size="11.00"> </text>
<polygon fill="none" stroke="#c0392b" stroke-width="3" points="417.65,-5.5 417.65,-150.5 655.9,-150.5 655.9,-5.5 417.65,-5.5" />
</g>

<g id="edge6" class="edge">
<title>TRIGGER-&gt;SurtaxLineItem</title>
<path fill="none" stroke="#27ae60" stroke-width="2" d="M278.36,-78C317.62,-78 356.88,-78 396.14,-78" />
<polygon fill="#27ae60" stroke="#27ae60" stroke-width="2" points="405.88,-78 395.88,-82.5 403.32,-78.5 395.88,-78.5 395.88,-78 395.88,-77.5 403.32,-77.5 395.88,-73.5 405.88,-78" />
</g>

<g id="node2" class="node">
<title>CountryOrigin</title>
<polygon fill="#4a6fa5" stroke="none" points="333.27,-639.5 333.27,-655.5 418.27,-655.5 418.27,-639.5 333.27,-639.5" />
<text xml:space="preserve" text-anchor="start" x="335.27" y="-644.05" font-family="Helvetica,sans-Serif" font-weight="bold" font-size="11.00" fill="white"> CountryOrigin </text>
<polygon fill="#b8cce8" stroke="none" points="333.27,-621.5 333.27,-639.5 341.94,-639.5 341.94,-621.5 333.27,-621.5" />
<text xml:space="preserve" text-anchor="start" x="336.1" y="-627.5" font-family="Helvetica,sans-Serif" font-size="11.00"> </text>
<polygon fill="#dbe4f0" stroke="none" points="341.94,-621.5 341.94,-639.5 409.6,-639.5 409.6,-621.5 341.94,-621.5" />
<text xml:space="preserve" text-anchor="start" x="344.94" y="-627.5" font-family="Helvetica,sans-Serif" font-size="11.00" fill="#1a1a2e"> surtax_rate </text>
<polygon fill="#b8cce8" stroke="none" points="409.6,-621.5 409.6,-639.5 418.27,-639.5 418.27,-621.5 409.6,-621.5" />
<text xml:space="preserve" text-anchor="start" x="412.44" y="-627.5" font-family="Helvetica,sans-Serif" font-size="11.00"> </text>
<polygon fill="none" stroke="#4a6fa5" points="332.27,-620.5 332.27,-656.5 419.27,-656.5 419.27,-620.5 332.27,-620.5" />
</g>

<g id="node3" class="node">
<title>CustomsEntry</title>
<polygon fill="#4a6fa5" stroke="none" points="540.27,-486.25 540.27,-502.25 773.27,-502.25 773.27,-486.25 540.27,-486.25" />
<text xml:space="preserve" text-anchor="start" x="615.9" y="-490.8" font-family="Helvetica,sans-Serif" font-weight="bold" font-size="11.00" fill="white"> CustomsEntry </text>
<polygon fill="#b8cce8" stroke="none" points="540.27,-468.25 540.27,-486.25 547.27,-486.25 547.27,-468.25 540.27,-468.25" />
<text xml:space="preserve" text-anchor="start" x="542.27" y="-474.25" font-family="Helvetica,sans-Serif" font-size="11.00"> </text>
<polygon fill="#dbe4f0" stroke="none" points="547.27,-468.25 547.27,-486.25 766.27,-486.25 766.27,-468.25 547.27,-468.25" />
<text xml:space="preserve" text-anchor="start" x="550.27" y="-474.25" font-family="Helvetica,sans-Serif" font-size="11.00" fill="#1a1a2e"> total_customs_value </text>
<polygon fill="#b8cce8" stroke="none" points="766.27,-468.25 766.27,-486.25 773.27,-486.25 773.27,-468.25 766.27,-468.25" />
<text xml:space="preserve" text-anchor="start" x="768.27" y="-474.25" font-family="Helvetica,sans-Serif" font-size="11.00"> </text>
<polygon fill="#b8cce8" stroke="none" points="540.27,-450.25 540.27,-468.25 547.27,-468.25 547.27,-450.25 540.27,-450.25" />
<text xml:space="preserve" text-anchor="start" x="542.27" y="-456.25" font-family="Helvetica,sans-Serif" font-size="11.00"> </text>
<polygon fill="#dbe4f0" stroke="none" points="547.27,-450.25 547.27,-468.25 766.27,-468.25 766.27,-450.25 547.27,-450.25" />
<text xml:space="preserve" text-anchor="start" x="550.27" y="-456.25" font-family="Helvetica,sans-Serif" font-size="11.00" fill="#1a1a2e"> total_duty_amount </text>
<polygon fill="#b8cce8" stroke="none" points="766.27,-450.25 766.27,-468.25 773.27,-468.25 773.27,-450.25 766.27,-450.25" />
<text xml:space="preserve" text-anchor="start" x="768.27" y="-456.25" font-family="Helvetica,sans-Serif" font-size="11.00"> </text>
<polygon fill="#b8cce8" stroke="none" points="540.27,-432.25 540.27,-450.25 547.27,-450.25 547.27,-432.25 540.27,-432.25" />
<text xml:space="preserve" text-anchor="start" x="542.27" y="-438.25" font-family="Helvetica,sans-Serif" font-size="11.00"> </text>
<polygon fill="#dbe4f0" stroke="none" points="547.27,-432.25 547.27,-450.25 766.27,-450.25 766.27,-432.25 547.27,-432.25" />
<text xml:space="preserve" text-anchor="start" x="550.27" y="-438.25" font-family="Helvetica,sans-Serif" font-size="11.00" fill="#1a1a2e"> total_surtax_amount </text>
<polygon fill="#b8cce8" stroke="none" points="766.27,-432.25 766.27,-450.25 773.27,-450.25 773.27,-432.25 766.27,-432.25" />
<text xml:space="preserve" text-anchor="start" x="768.27" y="-438.25" font-family="Helvetica,sans-Serif" font-size="11.00"> </text>
<polygon fill="#b8cce8" stroke="none" points="540.27,-414.25 540.27,-432.25 547.27,-432.25 547.27,-414.25 540.27,-414.25" />
<text xml:space="preserve" text-anchor="start" x="542.27" y="-420.25" font-family="Helvetica,sans-Serif" font-size="11.00"> </text>
<polygon fill="#dbe4f0" stroke="none" points="547.27,-414.25 547.27,-432.25 766.27,-432.25 766.27,-414.25 547.27,-414.25" />
<text xml:space="preserve" text-anchor="start" x="550.27" y="-419.8" font-family="Helvetica,sans-Serif" font-size="11.00" fill="#1a1a2e"> surtax_applicable </text>
<text xml:space="preserve" text-anchor="start" x="639.52" y="-419.8" font-family="Helvetica,sans-Serif" font-size="11.00"> </text>
<text xml:space="preserve" text-anchor="start" x="642.52" y="-419.8" font-family="Helvetica,sans-Serif" font-size="9.00" fill="#e67e22">= 1 if (ship_date is not None...</text>
<polygon fill="#b8cce8" stroke="none" points="766.27,-414.25 766.27,-432.25 773.27,-432.25 773.27,-414.25 766.27,-414.25" />
<text xml:space="preserve" text-anchor="start" x="768.27" y="-420.25" font-family="Helvetica,sans-Serif" font-size="11.00"> </text>
<polygon fill="#b8cce8" stroke="none" points="540.27,-396.25 540.27,-414.25 547.27,-414.25 547.27,-396.25 540.27,-396.25" />
<text xml:space="preserve" text-anchor="start" x="542.27" y="-402.25" font-family="Helvetica,sans-Serif" font-size="11.00"> </text>
<polygon fill="#dbe4f0" stroke="none" points="547.27,-396.25 547.27,-414.25 766.27,-414.25 766.27,-396.25 547.27,-396.25" />
<text xml:space="preserve" text-anchor="start" x="550.27" y="-402.25" font-family="Helvetica,sans-Serif" font-size="11.00" fill="#1a1a2e"> ship_date </text>
<polygon fill="#b8cce8" stroke="none" points="766.27,-396.25 766.27,-414.25 773.27,-414.25 773.27,-396.25 766.27,-396.25" />
<text xml:space="preserve" text-anchor="start" x="768.27" y="-402.25" font-family="Helvetica,sans-Serif" font-size="11.00"> </text>
<polygon fill="#b8cce8" stroke="none" points="540.27,-378.25 540.27,-396.25 547.27,-396.25 547.27,-378.25 540.27,-378.25" />
<text xml:space="preserve" text-anchor="start" x="542.27" y="-384.25" font-family="Helvetica,sans-Serif" font-size="11.00"> </text>
<polygon fill="#dbe4f0" stroke="none" points="547.27,-378.25 547.27,-396.25 766.27,-396.25 766.27,-378.25 547.27,-378.25" />
<text xml:space="preserve" text-anchor="start" x="550.27" y="-384.25" font-family="Helvetica,sans-Serif" font-size="11.00" fill="#1a1a2e"> effective_date </text>
<polygon fill="#b8cce8" stroke="none" points="766.27,-378.25 766.27,-396.25 773.27,-396.25 773.27,-378.25 766.27,-378.25" />
<text xml:space="preserve" text-anchor="start" x="768.27" y="-384.25" font-family="Helvetica,sans-Serif" font-size="11.00"> </text>
<polygon fill="#b8cce8" stroke="none" points="540.27,-360.25 540.27,-378.25 547.27,-378.25 547.27,-360.25 540.27,-360.25" />
<text xml:space="preserve" text-anchor="start" x="542.27" y="-366.25" font-family="Helvetica,sans-Serif" font-size="11.00"> </text>
<polygon fill="#dbe4f0" stroke="none" points="547.27,-360.25 547.27,-378.25 766.27,-378.25 766.27,-360.25 547.27,-360.25" />
<text xml:space="preserve" text-anchor="start" x="550.27" y="-366.25" font-family="Helvetica,sans-Serif" font-size="11.00" fill="#1a1a2e"> country_surtax_rate </text>
<polygon fill="#b8cce8" stroke="none" points="766.27,-360.25 766.27,-378.25 773.27,-378.25 773.27,-360.25 766.27,-360.25" />
<text xml:space="preserve" text-anchor="start" x="768.27" y="-366.25" font-family="Helvetica,sans-Serif" font-size="11.00"> </text>
<polygon fill="#b8cce8" stroke="none" points="540.27,-342.25 540.27,-360.25 547.27,-360.25 547.27,-342.25 540.27,-342.25" />
<text xml:space="preserve" text-anchor="start" x="542.27" y="-348.25" font-family="Helvetica,sans-Serif" font-size="11.00"> </text>
<polygon fill="#dbe4f0" stroke="none" points="547.27,-342.25 547.27,-360.25 766.27,-360.25 766.27,-342.25 547.27,-342.25" />
<text xml:space="preserve" text-anchor="start" x="550.27" y="-347.8" font-family="Helvetica,sans-Serif" font-size="11.00" fill="#1a1a2e"> duty_paid_value </text>
<text xml:space="preserve" text-anchor="start" x="634.27" y="-347.8" font-family="Helvetica,sans-Serif" font-size="11.00"> </text>
<text xml:space="preserve" text-anchor="start" x="637.27" y="-347.8" font-family="Helvetica,sans-Serif" font-size="9.00" fill="#e67e22">= (total_customs_value or 0</text>
<polygon fill="#b8cce8" stroke="none" points="766.27,-342.25 766.27,-360.25 773.27,-360.25 773.27,-342.25 766.27,-342.25" />
<text xml:space="preserve" text-anchor="start" x="768.27" y="-348.25" font-family="Helvetica,sans-Serif" font-size="11.00"> </text>
<polygon fill="#b8cce8" stroke="none" points="540.27,-324.25 540.27,-342.25 547.27,-342.25 547.27,-324.25 540.27,-324.25" />
<text xml:space="preserve" text-anchor="start" x="542.27" y="-330.25" font-family="Helvetica,sans-Serif" font-size="11.00"> </text>
<polygon fill="#dbe4f0" stroke="none" points="547.27,-324.25 547.27,-342.25 766.27,-342.25 766.27,-324.25 547.27,-324.25" />
<text xml:space="preserve" text-anchor="start" x="550.27" y="-329.8" font-family="Helvetica,sans-Serif" font-size="11.00" fill="#1a1a2e"> sales_tax_amount </text>
<text xml:space="preserve" text-anchor="start" x="643.27" y="-329.8" font-family="Helvetica,sans-Serif" font-size="11.00"> </text>
<text xml:space="preserve" text-anchor="start" x="646.27" y="-329.8" font-family="Helvetica,sans-Serif" font-size="9.00" fill="#e67e22">= (duty_paid_value or 0</text>
<polygon fill="#b8cce8" stroke="none" points="766.27,-324.25 766.27,-342.25 773.27,-342.25 773.27,-324.25 766.27,-324.25" />
<text xml:space="preserve" text-anchor="start" x="768.27" y="-330.25" font-family="Helvetica,sans-Serif" font-size="11.00"> </text>
<polygon fill="#b8cce8" stroke="none" points="540.27,-306.25 540.27,-324.25 547.27,-324.25 547.27,-306.25 540.27,-306.25" />
<text xml:space="preserve" text-anchor="start" x="542.27" y="-312.25" font-family="Helvetica,sans-Serif" font-size="11.00"> </text>
<polygon fill="#dbe4f0" stroke="none" points="547.27,-306.25 547.27,-324.25 766.27,-324.25 766.27,-306.25 547.27,-306.25" />
<text xml:space="preserve" text-anchor="start" x="550.27" y="-311.8" font-family="Helvetica,sans-Serif" font-size="11.00" fill="#1a1a2e"> total_tax_due </text>
<text xml:space="preserve" text-anchor="start" x="620.77" y="-311.8" font-family="Helvetica,sans-Serif" font-size="11.00"> </text>
<text xml:space="preserve" text-anchor="start" x="623.77" y="-311.8" font-family="Helvetica,sans-Serif" font-size="9.00" fill="#e67e22">= (total_duty_amount or 0</text>
<polygon fill="#b8cce8" stroke="none" points="766.27,-306.25 766.27,-324.25 773.27,-324.25 773.27,-306.25 766.27,-306.25" />
<text xml:space="preserve" text-anchor="start" x="768.27" y="-312.25" font-family="Helvetica,sans-Serif" font-size="11.00"> </text>
<polygon fill="#b8cce8" stroke="none" points="540.27,-288.25 540.27,-306.25 547.27,-306.25 547.27,-288.25 540.27,-288.25" />
<text xml:space="preserve" text-anchor="start" x="542.27" y="-294.25" font-family="Helvetica,sans-Serif" font-size="11.00"> </text>
<polygon fill="#dbe4f0" stroke="none" points="547.27,-288.25 547.27,-306.25 766.27,-306.25 766.27,-288.25 547.27,-288.25" />
<text xml:space="preserve" text-anchor="start" x="550.27" y="-294.25" font-family="Helvetica,sans-Serif" font-size="11.00" fill="#1a1a2e"> program_code </text>
<polygon fill="#b8cce8" stroke="none" points="766.27,-288.25 766.27,-306.25 773.27,-306.25 773.27,-288.25 766.27,-288.25" />
<text xml:space="preserve" text-anchor="start" x="768.27" y="-294.25" font-family="Helvetica,sans-Serif" font-size="11.00"> </text>
<polygon fill="#b8cce8" stroke="none" points="540.27,-270.25 540.27,-288.25 547.27,-288.25 547.27,-270.25 540.27,-270.25" />
<text xml:space="preserve" text-anchor="start" x="542.27" y="-276.25" font-family="Helvetica,sans-Serif" font-size="11.00"> </text>
<polygon fill="#dbe4f0" stroke="none" points="547.27,-270.25 547.27,-288.25 766.27,-288.25 766.27,-270.25 547.27,-270.25" />
<text xml:space="preserve" text-anchor="start" x="550.27" y="-276.25" font-family="Helvetica,sans-Serif" font-size="11.00" fill="#1a1a2e"> pc_number </text>
<polygon fill="#b8cce8" stroke="none" points="766.27,-270.25 766.27,-288.25 773.27,-288.25 773.27,-270.25 766.27,-270.25" />
<text xml:space="preserve" text-anchor="start" x="768.27" y="-276.25" font-family="Helvetica,sans-Serif" font-size="11.00"> </text>
<polygon fill="#b8cce8" stroke="none" points="540.27,-252.25 540.27,-270.25 547.27,-270.25 547.27,-252.25 540.27,-252.25" />
<text xml:space="preserve" text-anchor="start" x="542.27" y="-258.25" font-family="Helvetica,sans-Serif" font-size="11.00"> </text>
<polygon fill="#dbe4f0" stroke="none" points="547.27,-252.25 547.27,-270.25 766.27,-270.25 766.27,-252.25 547.27,-252.25" />
<text xml:space="preserve" text-anchor="start" x="550.27" y="-258.25" font-family="Helvetica,sans-Serif" font-size="11.00" fill="#1a1a2e"> province_tax_rate </text>
<polygon fill="#b8cce8" stroke="none" points="766.27,-252.25 766.27,-270.25 773.27,-270.25 773.27,-252.25 766.27,-252.25" />
<text xml:space="preserve" text-anchor="start" x="768.27" y="-258.25" font-family="Helvetica,sans-Serif" font-size="11.00"> </text>
<polygon fill="none" stroke="#4a6fa5" points="539.27,-251.25 539.27,-503.25 774.27,-503.25 774.27,-251.25 539.27,-251.25" />
</g>

<g id="edge10" class="edge">
<title>CountryOrigin:CountryOrigin_surtax_rate_w-&gt;CustomsEntry:CustomsEntry_country_surtax_rate_w</title>
<path fill="none" stroke="#444444" stroke-width="1.8" d="M337.6,-620.5C337.6,-618.52 493.72,-423.36 531.25,-378.41" />
<polygon fill="#444444" stroke="#444444" stroke-width="1.8" points="537.83,-370.9 534.62,-381.39 536.28,-373.28 531.54,-378.69 531.24,-378.42 530.94,-378.16 535.68,-372.75 527.85,-375.46 537.83,-370.9" />
<text xml:space="preserve" text-anchor="middle" x="393.8" y="-549" font-family="Helvetica,sans-Serif" font-size="10.00" fill="#444444">4</text>
</g>

<g id="edge1" class="edge">
<title>CustomsEntry-&gt;CountryOrigin</title>
<path fill="none" stroke="#e0e0e0" stroke-width="0.7" d="M524.02,-500.72C475.67,-545.33 426.1,-591.07 398.29,-616.72" />
<polygon fill="#e0e0e0" stroke="#e0e0e0" stroke-width="0.7" points="523.93,-500.81 534.33,-497.33 527.78,-497.26 531.11,-494.18 531.11,-494.18 531.11,-494.18 527.78,-497.26 528.23,-490.72 523.93,-500.81" />
</g>

<g id="node5" class="node">
<title>Province</title>
<polygon fill="#4a6fa5" stroke="none" points="501.27,-639.5 501.27,-655.5 566.27,-655.5 566.27,-639.5 501.27,-639.5" />
<text xml:space="preserve" text-anchor="start" x="507.52" y="-644.05" font-family="Helvetica,sans-Serif" font-weight="bold" font-size="11.00" fill="white"> Province </text>
<polygon fill="#b8cce8" stroke="none" points="501.27,-621.5 501.27,-639.5 508.27,-639.5 508.27,-621.5 501.27,-621.5" />
<text xml:space="preserve" text-anchor="start" x="503.27" y="-627.5" font-family="Helvetica,sans-Serif" font-size="11.00"> </text>
<polygon fill="#dbe4f0" stroke="none" points="508.27,-621.5 508.27,-639.5 559.27,-639.5 559.27,-621.5 508.27,-621.5" />
<text xml:space="preserve" text-anchor="start" x="511.27" y="-627.5" font-family="Helvetica,sans-Serif" font-size="11.00" fill="#1a1a2e"> tax_rate </text>
<polygon fill="#b8cce8" stroke="none" points="559.27,-621.5 559.27,-639.5 566.27,-639.5 566.27,-621.5 559.27,-621.5" />
<text xml:space="preserve" text-anchor="start" x="561.27" y="-627.5" font-family="Helvetica,sans-Serif" font-size="11.00"> </text>
<polygon fill="none" stroke="#4a6fa5" points="500.27,-620.5 500.27,-656.5 567.27,-656.5 567.27,-620.5 500.27,-620.5" />
</g>

<g id="edge2" class="edge">
<title>CustomsEntry-&gt;Province</title>
<path fill="none" stroke="#e0e0e0" stroke-width="0.7" d="M591.42,-515.99C572.68,-555.5 554.41,-593.99 543.63,-616.72" />
<polygon fill="#e0e0e0" stroke="#e0e0e0" stroke-width="0.7" points="591.29,-516.27 599.64,-509.16 593.53,-511.54 595.48,-507.44 595.48,-507.44 595.48,-507.44 593.53,-511.54 591.51,-505.3 591.29,-516.27" />
</g>

<g id="node7" class="node">
<title>SysConfig</title>
<polygon fill="#4a6fa5" stroke="none" points="714.9,-657.5 714.9,-673.5 810.65,-673.5 810.65,-657.5 714.9,-657.5" />
<text xml:space="preserve" text-anchor="start" x="732.4" y="-662.05" font-family="Helvetica,sans-Serif" font-weight="bold" font-size="11.00" fill="white"> SysConfig </text>
<polygon fill="#b8cce8" stroke="none" points="714.9,-639.5 714.9,-657.5 721.9,-657.5 721.9,-639.5 714.9,-639.5" />
<text xml:space="preserve" text-anchor="start" x="716.9" y="-645.5" font-family="Helvetica,sans-Serif" font-size="11.00"> </text>
<polygon fill="#dbe4f0" stroke="none" points="721.9,-639.5 721.9,-657.5 803.65,-657.5 803.65,-639.5 721.9,-639.5" />
<text xml:space="preserve" text-anchor="start" x="724.9" y="-645.5" font-family="Helvetica,sans-Serif" font-size="11.00" fill="#1a1a2e"> effective_date </text>
<polygon fill="#b8cce8" stroke="none" points="803.65,-639.5 803.65,-657.5 810.65,-657.5 810.65,-639.5 803.65,-639.5" />
<text xml:space="preserve" text-anchor="start" x="805.65" y="-645.5" font-family="Helvetica,sans-Serif" font-size="11.00"> </text>
<polygon fill="#b8cce8" stroke="none" points="714.9,-621.5 714.9,-639.5 721.9,-639.5 721.9,-621.5 714.9,-621.5" />
<text xml:space="preserve" text-anchor="start" x="716.9" y="-627.5" font-family="Helvetica,sans-Serif" font-size="11.00"> </text>
<polygon fill="#dbe4f0" stroke="none" points="721.9,-621.5 721.9,-639.5 803.65,-639.5 803.65,-621.5 721.9,-621.5" />
<text xml:space="preserve" text-anchor="start" x="724.9" y="-627.5" font-family="Helvetica,sans-Serif" font-size="11.00" fill="#1a1a2e"> program_code </text>
<polygon fill="#b8cce8" stroke="none" points="803.65,-621.5 803.65,-639.5 810.65,-639.5 810.65,-621.5 803.65,-621.5" />
<text xml:space="preserve" text-anchor="start" x="805.65" y="-627.5" font-family="Helvetica,sans-Serif" font-size="11.00"> </text>
<polygon fill="#b8cce8" stroke="none" points="714.9,-603.5 714.9,-621.5 721.9,-621.5 721.9,-603.5 714.9,-603.5" />
<text xml:space="preserve" text-anchor="start" x="716.9" y="-609.5" font-family="Helvetica,sans-Serif" font-size="11.00"> </text>
<polygon fill="#dbe4f0" stroke="none" points="721.9,-603.5 721.9,-621.5 803.65,-621.5 803.65,-603.5 721.9,-603.5" />
<text xml:space="preserve" text-anchor="start" x="724.9" y="-609.5" font-family="Helvetica,sans-Serif" font-size="11.00" fill="#1a1a2e"> pc_number </text>
<polygon fill="#b8cce8" stroke="none" points="803.65,-603.5 803.65,-621.5 810.65,-621.5 810.65,-603.5 803.65,-603.5" />
<text xml:space="preserve" text-anchor="start" x="805.65" y="-609.5" font-family="Helvetica,sans-Serif" font-size="11.00"> </text>
<polygon fill="none" stroke="#4a6fa5" points="713.9,-602.5 713.9,-674.5 811.65,-674.5 811.65,-602.5 713.9,-602.5" />
</g>

<g id="edge3" class="edge">
<title>CustomsEntry-&gt;SysConfig</title>
<path fill="none" stroke="#e0e0e0" stroke-width="0.7" d="M785.3,-515.95C790.94,-526.11 795.86,-536.57 799.77,-547.25 806,-564.26 800.56,-582.82 792.12,-598.66" />
<polygon fill="#e0e0e0" stroke="#e0e0e0" stroke-width="0.7" points="785.31,-515.95 784.18,-505.04 782.68,-511.42 780.41,-507.5 780.41,-507.5 780.41,-507.5 782.68,-511.42 776.4,-509.56 785.31,-515.95" />
</g>

<g id="node4" class="node">
<title>HsCodeRate</title>
<polygon fill="#4a6fa5" stroke="none" points="91.9,-648.5 91.9,-664.5 205.65,-664.5 205.65,-648.5 91.9,-648.5" />
<text xml:space="preserve" text-anchor="start" x="112.77" y="-653.05" font-family="Helvetica,sans-Serif" font-weight="bold" font-size="11.00" fill="white"> HsCodeRate </text>
<polygon fill="#b8cce8" stroke="none" points="91.9,-630.5 91.9,-648.5 98.9,-648.5 98.9,-630.5 91.9,-630.5" />
<text xml:space="preserve" text-anchor="start" x="93.9" y="-636.5" font-family="Helvetica,sans-Serif" font-size="11.00"> </text>
<polygon fill="#dbe4f0" stroke="none" points="98.9,-630.5 98.9,-648.5 198.65,-648.5 198.65,-630.5 98.9,-630.5" />
<text xml:space="preserve" text-anchor="start" x="101.9" y="-636.5" font-family="Helvetica,sans-Serif" font-size="11.00" fill="#1a1a2e"> base_duty_rate </text>
<polygon fill="#b8cce8" stroke="none" points="198.65,-630.5 198.65,-648.5 205.65,-648.5 205.65,-630.5 198.65,-630.5" />
<text xml:space="preserve" text-anchor="start" x="200.65" y="-636.5" font-family="Helvetica,sans-Serif" font-size="11.00"> </text>
<polygon fill="#b8cce8" stroke="none" points="91.9,-612.5 91.9,-630.5 98.9,-630.5 98.9,-612.5 91.9,-612.5" />
<text xml:space="preserve" text-anchor="start" x="93.9" y="-618.5" font-family="Helvetica,sans-Serif" font-size="11.00"> </text>
<polygon fill="#dbe4f0" stroke="none" points="98.9,-612.5 98.9,-630.5 198.65,-630.5 198.65,-612.5 98.9,-612.5" />
<text xml:space="preserve" text-anchor="start" x="101.9" y="-618.5" font-family="Helvetica,sans-Serif" font-size="11.00" fill="#1a1a2e"> is_steel_derivative </text>
<polygon fill="#b8cce8" stroke="none" points="198.65,-612.5 198.65,-630.5 205.65,-630.5 205.65,-612.5 198.65,-612.5" />
<text xml:space="preserve" text-anchor="start" x="200.65" y="-618.5" font-family="Helvetica,sans-Serif" font-size="11.00"> </text>
<polygon fill="none" stroke="#4a6fa5" points="90.9,-611.5 90.9,-665.5 206.65,-665.5 206.65,-611.5 90.9,-611.5" />
</g>

<g id="edge12" class="edge">
<title>HsCodeRate:HsCodeRate_base_duty_rate_w-&gt;SurtaxLineItem:SurtaxLineItem_base_duty_rate_w</title>
<path fill="none" stroke="#444444" stroke-width="1.8" d="M90.9,-639.5C-83.44,-639.5 37.5,-413 91.52,-247.25 100.25,-220.48 105.21,-211.42 128.77,-196 198.08,-150.66 240.89,-200.44 310.77,-156 373.32,-116.22 343.49,-26.54 406.28,-16.85" />
<polygon fill="#444444" stroke="#444444" stroke-width="1.8" points="415.96,-16.16 406.31,-21.36 413.19,-16.76 406.01,-17.27 405.98,-16.87 405.95,-16.48 413.13,-15.96 405.66,-12.39 415.96,-16.16" />
<text xml:space="preserve" text-anchor="middle" x="94.15" y="-373.38" font-family="Helvetica,sans-Serif" font-size="10.00" fill="#444444">6</text>
</g>

<g id="edge13" class="edge">
<title>HsCodeRate:HsCodeRate_is_steel_derivative_w-&gt;SurtaxLineItem:SurtaxLineItem_is_steel_derivative_w</title>
<path fill="none" stroke="#444444" stroke-width="1.8" d="M95.4,-611.5C95.4,-526.34 168.99,-319.22 214.52,-247.25 246.03,-197.44 269.87,-198.45 310.77,-156 357.96,-107.04 347.45,-42.14 406.32,-34.7" />
<polygon fill="#444444" stroke="#444444" stroke-width="1.8" points="415.96,-34.13 406.24,-39.22 413.18,-34.7 406,-35.12 405.97,-34.72 405.95,-34.32 413.13,-33.9 405.71,-30.23 415.96,-34.13" />
<text xml:space="preserve" text-anchor="middle" x="217.15" y="-373.38" font-family="Helvetica,sans-Serif" font-size="10.00" fill="#444444">7</text>
</g>

<g id="edge11" class="edge">
<title>Province:Province_tax_rate_w-&gt;CustomsEntry:CustomsEntry_province_tax_rate_w</title>
<path fill="none" stroke="#444444" stroke-width="1.8" d="M504.77,-620.5C504.77,-464.33 385.42,-271.71 527.17,-261.66" />
<polygon fill="#444444" stroke="#444444" stroke-width="1.8" points="537.08,-261.32 527.24,-266.16 534.29,-261.82 527.1,-262.06 527.08,-261.66 527.07,-261.26 534.26,-261.02 526.93,-257.17 537.08,-261.32" />
<text xml:space="preserve" text-anchor="middle" x="501.12" y="-549" font-family="Helvetica,sans-Serif" font-size="10.00" fill="#444444">5</text>
</g>

<g id="edge4" class="edge">
<title>SurtaxLineItem-&gt;CustomsEntry</title>
<path fill="none" stroke="#e0e0e0" stroke-width="0.7" d="M399.58,-124.99C362.17,-145.6 336.79,-173.06 356.77,-207.25 357.44,-208.4 449.67,-260.27 531.68,-306.24" />
<polygon fill="#e0e0e0" stroke="#e0e0e0" stroke-width="0.7" points="399.2,-125.19 410.15,-124.53 403.84,-122.76 407.85,-120.65 407.85,-120.65 407.85,-120.65 403.84,-122.76 405.96,-116.56 399.2,-125.19" />
</g>

<g id="edge14" class="edge">
<title>SurtaxLineItem:SurtaxLineItem_customs_value_w-&gt;CustomsEntry:CustomsEntry_total_customs_value_w</title>
<path fill="none" stroke="#444444" stroke-width="2" stroke-dasharray="5,2" d="M418.15,-124C381.1,-124 413.65,-171.22 422.27,-207.25 451.73,-330.34 411.26,-468.06 527.16,-476.81" />
<polygon fill="#444444" stroke="#444444" stroke-width="2" points="536.84,-477.16 526.68,-481.3 534.26,-477.57 526.82,-477.3 526.84,-476.8 526.86,-476.3 534.29,-476.57 527.01,-472.3 536.84,-477.16" />
<text xml:space="preserve" text-anchor="middle" x="427.52" y="-197.75" font-family="Helvetica,sans-Serif" font-size="10.00" fill="#444444">15</text>
</g>

<g id="edge15" class="edge">
<title>SurtaxLineItem:SurtaxLineItem_base_duty_amount_w-&gt;CustomsEntry:CustomsEntry_total_duty_amount_w</title>
<path fill="none" stroke="#444444" stroke-width="2" stroke-dasharray="5,2" d="M418.15,-106C395.92,-106 414.76,-134.21 419.15,-156 419.34,-156.98 512.34,-393.61 534.55,-448.14" />
<polygon fill="#444444" stroke="#444444" stroke-width="2" points="538.32,-457.01 530.27,-449.56 536.86,-454.84 533.95,-448 534.41,-447.8 534.87,-447.61 537.78,-454.45 538.55,-446.04 538.32,-457.01" />
<text xml:space="preserve" text-anchor="middle" x="441.78" y="-197.75" font-family="Helvetica,sans-Serif" font-size="10.00" fill="#444444">16</text>
</g>

<g id="edge16" class="edge">
<title>SurtaxLineItem:SurtaxLineItem_surtax_amount_w-&gt;CustomsEntry:CustomsEntry_total_surtax_amount_w</title>
<path fill="none" stroke="#444444" stroke-width="2" stroke-dasharray="5,2" d="M418.15,-88C387.92,-88 406.77,-128.42 419.15,-156 429.91,-180 448.67,-173.79 462.77,-196 521.63,-288.73 432.39,-429.99 527.13,-440.61" />
<polygon fill="#444444" stroke="#444444" stroke-width="2" points="536.84,-441.12 526.61,-445.09 534.25,-441.49 526.82,-441.1 526.85,-440.6 526.88,-440.1 534.3,-440.49 527.09,-436.1 536.84,-441.12" />
<text xml:space="preserve" text-anchor="middle" x="471.5" y="-197.75" font-family="Helvetica,sans-Serif" font-size="10.00" fill="#444444">17</text>
</g>

<g id="edge5" class="edge">
<title>SurtaxLineItem-&gt;HsCodeRate</title>
<path fill="none" stroke="#e0e0e0" stroke-width="0.7" d="M399.85,-140.67C376.09,-156.09 353.4,-174.49 335.77,-196 227.83,-327.69 293.61,-409.18 211.77,-558.5 202.16,-576.04 188.61,-593.62 176.55,-607.73" />
<polygon fill="#e0e0e0" stroke="#e0e0e0" stroke-width="0.7" points="399.64,-140.81 410.5,-139.28 404.06,-138.01 407.9,-135.6 407.9,-135.6 407.9,-135.6 404.06,-138.01 405.69,-131.66 399.64,-140.81" />
</g>

<g id="edge7" class="edge">
<title>SysConfig:SysConfig_effective_date_w-&gt;CustomsEntry:CustomsEntry_effective_date_w</title>
<path fill="none" stroke="#444444" stroke-width="1.8" d="M713.9,-648.5C689.03,-648.5 551.05,-529.66 540.27,-507.25 519.15,-463.31 491.24,-399.44 527.33,-388.78" />
<polygon fill="#444444" stroke="#444444" stroke-width="1.8" points="537.1,-387.53 527.75,-393.27 534.36,-388.28 527.23,-389.2 527.18,-388.8 527.13,-388.41 534.26,-387.49 526.6,-384.34 537.1,-387.53" />
<text xml:space="preserve" text-anchor="middle" x="588.56" y="-549" font-family="Helvetica,sans-Serif" font-size="10.00" fill="#444444">1</text>
</g>

<g id="edge8" class="edge">
<title>SysConfig:SysConfig_program_code_w-&gt;CustomsEntry:CustomsEntry_program_code_w</title>
<path fill="none" stroke="#444444" stroke-width="1.8" d="M713.9,-630.5C653.6,-630.5 656.5,-581.35 606.77,-547.25 578.33,-527.74 557.32,-537.23 540.27,-507.25 496.21,-429.76 450.26,-308.73 527.54,-298.01" />
<polygon fill="#444444" stroke="#444444" stroke-width="1.8" points="537.08,-297.39 527.4,-302.53 534.31,-297.97 527.13,-298.44 527.1,-298.04 527.08,-297.64 534.25,-297.18 526.81,-293.55 537.08,-297.39" />
<text xml:space="preserve" text-anchor="middle" x="622.85" y="-549" font-family="Helvetica,sans-Serif" font-size="10.00" fill="#444444">2</text>
</g>

<g id="edge9" class="edge">
<title>SysConfig:SysConfig_pc_number_w-&gt;CustomsEntry:CustomsEntry_pc_number_w</title>
<path fill="none" stroke="#444444" stroke-width="1.8" d="M718.4,-602.5C718.4,-560.51 678.61,-567.38 641.77,-547.25 599.22,-524 567.64,-547.27 540.27,-507.25 485.46,-427.12 441.75,-291.27 527.27,-280" />
<polygon fill="#444444" stroke="#444444" stroke-width="1.8" points="537.08,-279.39 527.38,-284.5 534.31,-279.96 527.13,-280.41 527.1,-280.01 527.08,-279.61 534.26,-279.16 526.82,-275.52 537.08,-279.39" />
<text xml:space="preserve" text-anchor="middle" x="670.84" y="-549" font-family="Helvetica,sans-Serif" font-size="10.00" fill="#444444">3</text>
</g>
<path d="M774.27,-366.25 C796.27,-366.25 796.27,-419.8 774.27,-419.8" stroke="#445544" stroke-width="1.2" stroke-dasharray="4,3" fill="none" /><polygon points="774.27,-419.8 778.27,-423.8 778.27,-415.8" stroke="#445544" fill="#445544" /><text x="799.3" y="-389.0" font-family="Helvetica,sans-Serif" font-size="10" fill="#445544">8</text><path d="M774.27,-474.25 C820.27,-474.25 820.27,-347.8 774.27,-347.8" stroke="#445544" stroke-width="1.2" stroke-dasharray="4,3" fill="none" /><polygon points="774.27,-347.8 778.27,-351.8 778.27,-343.8" stroke="#445544" fill="#445544" /><text x="823.3" y="-407.0" font-family="Helvetica,sans-Serif" font-size="10" fill="#445544">9</text><path d="M774.27,-347.8 C844.27,-347.8 844.27,-329.8 774.27,-329.8" stroke="#445544" stroke-width="1.2" stroke-dasharray="4,3" fill="none" /><polygon points="774.27,-329.8 778.27,-333.8 778.27,-325.8" stroke="#445544" fill="#445544" /><text x="847.3" y="-334.8" font-family="Helvetica,sans-Serif" font-size="10" fill="#445544">10</text><path d="M774.27,-456.25 C868.27,-456.25 868.27,-311.8 774.27,-311.8" stroke="#445544" stroke-width="1.2" stroke-dasharray="4,3" fill="none" /><polygon points="774.27,-311.8 778.27,-315.8 778.27,-307.8" stroke="#445544" fill="#445544" /><text x="871.3" y="-380.0" font-family="Helvetica,sans-Serif" font-size="10" fill="#445544">11</text><path d="M655.9,-31.0 C677.9,-31.0 677.9,-66.55 655.9,-66.55" stroke="#445544" stroke-width="1.2" stroke-dasharray="4,3" fill="none" /><polygon points="655.9,-66.55 659.9,-70.55 659.9,-62.55" stroke="#445544" fill="#445544" /><text x="680.9" y="-44.8" font-family="Helvetica,sans-Serif" font-size="10" fill="#445544">12</text><path d="M655.9,-121.0 C701.9,-121.0 701.9,-102.55 655.9,-102.55" stroke="#445544" stroke-width="1.2" stroke-dasharray="4,3" fill="none" /><polygon points="655.9,-102.55 659.9,-106.55 659.9,-98.55" stroke="#445544" fill="#445544" /><text x="704.9" y="-107.8" font-family="Helvetica,sans-Serif" font-size="10" fill="#445544">13</text><path d="M655.9,-121.0 C725.9,-121.0 725.9,-84.55 655.9,-84.55" stroke="#445544" stroke-width="1.2" stroke-dasharray="4,3" fill="none" /><polygon points="655.9,-84.55 659.9,-88.55 659.9,-80.55" stroke="#445544" fill="#445544" /><text x="728.9" y="-98.8" font-family="Helvetica,sans-Serif" font-size="10" fill="#445544">14</text></g>
</svg>