<svg xmlns="http://www.w3.org/2000/svg" width="724pt" height="675pt" viewBox="18.80 18.80 723.75 675.40">
<g id="graph0" class="graph" transform="scale(1 1) rotate(0) translate(28.8 684.05)">
<title>logic</title>
<polygon fill="white" stroke="none" points="-28.8,28.8 -28.8,-684.05 624.67,-684.05 624.67,28.8 -28.8,28.8" />
<text xml:space="preserve" text-anchor="start" x="156.56" y="-639.9" font-family="Helvetica,sans-Serif" font-weight="bold" font-size="13.00">Logic Diagram — samples/demo_emp_types</text>

<g id="node1" class="node">
<title>TRIGGER</title>
<polygon fill="#e8f5e9" stroke="none" points="8,-7.5 8,-40.5 182,-40.5 182,-7.5 8,-7.5" />
<text xml:space="preserve" text-anchor="start" x="17" y="-22.05" font-family="Helvetica,sans-Serif" font-weight="bold" font-size="11.00" fill="#27ae60">⚡ CommissionOrder inserted</text>
<polygon fill="none" stroke="#27ae60" stroke-width="2" points="9,-8.5 9,-39.5 181,-39.5 181,-8.5 9,-8.5" />
</g>

<g id="node2" class="node">
<title>CommissionOrder</title>
<polygon fill="#4a6fa5" stroke="none" points="331,-25 331,-41 437,-41 437,-25 331,-25" />
<text xml:space="preserve" text-anchor="start" x="333" y="-29.55" font-family="Helvetica,sans-Serif" font-weight="bold" font-size="11.00" fill="white"> CommissionOrder </text>
<polygon fill="#b8cce8" stroke="none" points="331,-7 331,-25 352.67,-25 352.67,-7 331,-7" />
<text xml:space="preserve" text-anchor="start" x="340.33" y="-13" font-family="Helvetica,sans-Serif" font-size="11.00"> </text>
<polygon fill="#dbe4f0" stroke="none" points="352.67,-7 352.67,-25 415.33,-25 415.33,-7 352.67,-7" />
<text xml:space="preserve" text-anchor="start" x="355.67" y="-13" font-family="Helvetica,sans-Serif" font-size="11.00" fill="#1a1a2e"> amount </text>
<polygon fill="#b8cce8" stroke="none" points="415.33,-7 415.33,-25 437,-25 437,-7 415.33,-7" />
<text xml:space="preserve" text-anchor="start" x="424.67" y="-13" font-family="Helvetica,sans-Serif" font-size="11.00"> </text>
<polygon fill="none" stroke="#c0392b" stroke-width="3" points="329.5,-5.5 329.5,-42.5 438.5,-42.5 438.5,-5.5 329.5,-5.5" />
</g>

<g id="edge4" class="edge">
<title>TRIGGER-&gt;CommissionOrder</title>
<path fill="none" stroke="#27ae60" stroke-width="2" d="M189.83,-24C229.24,-24 268.65,-24 308.06,-24" />
<polygon fill="#27ae60" stroke="#27ae60" stroke-width="2" points="317.85,-24 307.85,-28.5 315.29,-24.5 307.85,-24.5 307.85,-24 307.85,-23.5 315.29,-23.5 307.85,-19.5 317.85,-24" />
</g>

<g id="node4" class="node">
<title>Employee</title>
<polygon fill="#4a6fa5" stroke="none" points="337.75,-457.5 337.75,-473.5 584.25,-473.5 584.25,-457.5 337.75,-457.5" />
<text xml:space="preserve" text-anchor="start" x="432.12" y="-462.05" font-family="Helvetica,sans-Serif" font-weight="bold" font-size="11.00" fill="white"> Employee </text>
<polygon fill="#b8cce8" stroke="none" points="337.75,-439.5 337.75,-457.5 344.75,-457.5 344.75,-439.5 337.75,-439.5" />
<text xml:space="preserve" text-anchor="start" x="339.75" y="-445.5" font-family="Helvetica,sans-Serif" font-size="11.00"> </text>
<polygon fill="#dbe4f0" stroke="none" points="344.75,-439.5 344.75,-457.5 577.25,-457.5 577.25,-439.5 344.75,-439.5" />
<text xml:space="preserve" text-anchor="start" x="347.75" y="-445.05" font-family="Helvetica,sans-Serif" font-size="11.00" fill="#1a1a2e"> salary </text>
<text xml:space="preserve" text-anchor="start" x="382.25" y="-445.05" font-family="Helvetica,sans-Serif" font-size="11.00"> </text>
<text xml:space="preserve" text-anchor="start" x="385.25" y="-445.05" font-family="Helvetica,sans-Serif" font-size="9.00" fill="#e67e22">= _employee_salary(row)</text>
<polygon fill="#b8cce8" stroke="none" points="577.25,-439.5 577.25,-457.5 584.25,-457.5 584.25,-439.5 577.25,-439.5" />
<text xml:space="preserve" text-anchor="start" x="579.25" y="-445.5" font-family="Helvetica,sans-Serif" font-size="11.00"> </text>
<polygon fill="#b8cce8" stroke="none" points="337.75,-421.5 337.75,-439.5 344.75,-439.5 344.75,-421.5 337.75,-421.5" />
<text xml:space="preserve" text-anchor="start" x="339.75" y="-427.5" font-family="Helvetica,sans-Serif" font-size="11.00"> </text>
<polygon fill="#dbe4f0" stroke="none" points="344.75,-421.5 344.75,-439.5 577.25,-439.5 577.25,-421.5 344.75,-421.5" />
<text xml:space="preserve" text-anchor="start" x="347.75" y="-427.5" font-family="Helvetica,sans-Serif" font-size="11.00" fill="#1a1a2e"> type </text>
<polygon fill="#b8cce8" stroke="none" points="577.25,-421.5 577.25,-439.5 584.25,-439.5 584.25,-421.5 577.25,-421.5" />
<text xml:space="preserve" text-anchor="start" x="579.25" y="-427.5" font-family="Helvetica,sans-Serif" font-size="11.00"> </text>
<polygon fill="#b8cce8" stroke="none" points="337.75,-403.5 337.75,-421.5 344.75,-421.5 344.75,-403.5 337.75,-403.5" />
<text xml:space="preserve" text-anchor="start" x="339.75" y="-409.5" font-family="Helvetica,sans-Serif" font-size="11.00"> </text>
<polygon fill="#dbe4f0" stroke="none" points="344.75,-403.5 344.75,-421.5 577.25,-421.5 577.25,-403.5 344.75,-403.5" />
<text xml:space="preserve" text-anchor="start" x="347.75" y="-409.5" font-family="Helvetica,sans-Serif" font-size="11.00" fill="#1a1a2e"> union </text>
<polygon fill="#b8cce8" stroke="none" points="577.25,-403.5 577.25,-421.5 584.25,-421.5 584.25,-403.5 577.25,-403.5" />
<text xml:space="preserve" text-anchor="start" x="579.25" y="-409.5" font-family="Helvetica,sans-Serif" font-size="11.00"> </text>
<polygon fill="#b8cce8" stroke="none" points="337.75,-385.5 337.75,-403.5 344.75,-403.5 344.75,-385.5 337.75,-385.5" />
<text xml:space="preserve" text-anchor="start" x="339.75" y="-391.5" font-family="Helvetica,sans-Serif" font-size="11.00"> </text>
<polygon fill="#dbe4f0" stroke="none" points="344.75,-385.5 344.75,-403.5 577.25,-403.5 577.25,-385.5 344.75,-385.5" />
<text xml:space="preserve" text-anchor="start" x="347.75" y="-391.5" font-family="Helvetica,sans-Serif" font-size="11.00" fill="#1a1a2e"> max_hourly_weekly_salary </text>
<polygon fill="#b8cce8" stroke="none" points="577.25,-385.5 577.25,-403.5 584.25,-403.5 584.25,-385.5 577.25,-385.5" />
<text xml:space="preserve" text-anchor="start" x="579.25" y="-391.5" font-family="Helvetica,sans-Serif" font-size="11.00"> </text>
<polygon fill="#b8cce8" stroke="none" points="337.75,-367.5 337.75,-385.5 344.75,-385.5 344.75,-367.5 337.75,-367.5" />
<text xml:space="preserve" text-anchor="start" x="339.75" y="-373.5" font-family="Helvetica,sans-Serif" font-size="11.00"> </text>
<polygon fill="#dbe4f0" stroke="none" points="344.75,-367.5 344.75,-385.5 577.25,-385.5 577.25,-367.5 344.75,-367.5" />
<text xml:space="preserve" text-anchor="start" x="347.75" y="-373.05" font-family="Helvetica,sans-Serif" font-size="11.00" fill="#1a1a2e"> total_compensation </text>
<text xml:space="preserve" text-anchor="start" x="446.75" y="-373.05" font-family="Helvetica,sans-Serif" font-size="11.00"> </text>
<text xml:space="preserve" text-anchor="start" x="449.75" y="-373.05" font-family="Helvetica,sans-Serif" font-size="9.00" fill="#e67e22">= (salary or Decimal(0)) + De...</text>
<polygon fill="#b8cce8" stroke="none" points="577.25,-367.5 577.25,-385.5 584.25,-385.5 584.25,-367.5 577.25,-367.5" />
<text xml:space="preserve" text-anchor="start" x="579.25" y="-373.5" font-family="Helvetica,sans-Serif" font-size="11.00"> </text>
<polygon fill="#b8cce8" stroke="none" points="337.75,-349.5 337.75,-367.5 344.75,-367.5 344.75,-349.5 337.75,-349.5" />
<text xml:space="preserve" text-anchor="start" x="339.75" y="-355.5" font-family="Helvetica,sans-Serif" font-size="11.00"> </text>
<polygon fill="#dbe4f0" stroke="none" points="344.75,-349.5 344.75,-367.5 577.25,-367.5 577.25,-349.5 344.75,-349.5" />
<text xml:space="preserve" text-anchor="start" x="347.75" y="-355.5" font-family="Helvetica,sans-Serif" font-size="11.00" fill="#1a1a2e"> military </text>
<polygon fill="#b8cce8" stroke="none" points="577.25,-349.5 577.25,-367.5 584.25,-367.5 584.25,-349.5 577.25,-349.5" />
<text xml:space="preserve" text-anchor="start" x="579.25" y="-355.5" font-family="Helvetica,sans-Serif" font-size="11.00"> </text>
<polygon fill="#b8cce8" stroke="none" points="337.75,-331.5 337.75,-349.5 344.75,-349.5 344.75,-331.5 337.75,-331.5" />
<text xml:space="preserve" text-anchor="start" x="339.75" y="-337.5" font-family="Helvetica,sans-Serif" font-size="11.00"> </text>
<polygon fill="#dbe4f0" stroke="none" points="344.75,-331.5 344.75,-349.5 577.25,-349.5 577.25,-331.5 344.75,-331.5" />
<text xml:space="preserve" text-anchor="start" x="347.75" y="-337.5" font-family="Helvetica,sans-Serif" font-size="11.00" fill="#1a1a2e"> military_stipend_rate_per_year </text>
<polygon fill="#b8cce8" stroke="none" points="577.25,-331.5 577.25,-349.5 584.25,-349.5 584.25,-331.5 577.25,-331.5" />
<text xml:space="preserve" text-anchor="start" x="579.25" y="-337.5" font-family="Helvetica,sans-Serif" font-size="11.00"> </text>
<polygon fill="#c0392b" stroke="none" points="337.75,-317.75 337.75,-331.5 344.75,-331.5 344.75,-317.75 337.75,-317.75" />
<polygon fill="#fdf3e0" stroke="none" points="344.75,-317.75 344.75,-331.5 577.25,-331.5 577.25,-317.75 344.75,-317.75" />
<text xml:space="preserve" text-anchor="start" x="432.5" y="-321.95" font-family="Helvetica,sans-Serif" font-weight="bold" font-size="9.00" fill="#7a5c00"> Type: hourly </text>
<polygon fill="#c0392b" stroke="none" points="577.25,-317.75 577.25,-331.5 584.25,-331.5 584.25,-317.75 577.25,-317.75" />
<polygon fill="#b8cce8" stroke="none" points="337.75,-299.75 337.75,-317.75 344.75,-317.75 344.75,-299.75 337.75,-299.75" />
<text xml:space="preserve" text-anchor="start" x="339.75" y="-305.75" font-family="Helvetica,sans-Serif" font-size="11.00"> </text>
<polygon fill="#fdf3e0" stroke="none" points="344.75,-299.75 344.75,-317.75 577.25,-317.75 577.25,-299.75 344.75,-299.75" />
<text xml:space="preserve" text-anchor="start" x="347.75" y="-305.75" font-family="Helvetica,sans-Serif" font-size="11.00" fill="#1a1a2e"> hours_worked </text>
<polygon fill="#b8cce8" stroke="none" points="577.25,-299.75 577.25,-317.75 584.25,-317.75 584.25,-299.75 577.25,-299.75" />
<text xml:space="preserve" text-anchor="start" x="579.25" y="-305.75" font-family="Helvetica,sans-Serif" font-size="11.00"> </text>
<polygon fill="#b8cce8" stroke="none" points="337.75,-281.75 337.75,-299.75 344.75,-299.75 344.75,-281.75 337.75,-281.75" />
<text xml:space="preserve" text-anchor="start" x="339.75" y="-287.75" font-family="Helvetica,sans-Serif" font-size="11.00"> </text>
<polygon fill="#fdf3e0" stroke="none" points="344.75,-281.75 344.75,-299.75 577.25,-299.75 577.25,-281.75 344.75,-281.75" />
<text xml:space="preserve" text-anchor="start" x="347.75" y="-287.75" font-family="Helvetica,sans-Serif" font-size="11.00" fill="#1a1a2e"> hourly_rate </text>
<polygon fill="#b8cce8" stroke="none" points="577.25,-281.75 577.25,-299.75 584.25,-299.75 584.25,-281.75 577.25,-281.75" />
<text xml:space="preserve" text-anchor="start" x="579.25" y="-287.75" font-family="Helvetica,sans-Serif" font-size="11.00"> </text>
<polygon fill="#b8cce8" stroke="none" points="337.75,-263.75 337.75,-281.75 344.75,-281.75 344.75,-263.75 337.75,-263.75" />
<text xml:space="preserve" text-anchor="start" x="339.75" y="-269.75" font-family="Helvetica,sans-Serif" font-size="11.00"> </text>
<polygon fill="#fdf3e0" stroke="none" points="344.75,-263.75 344.75,-281.75 577.25,-281.75 577.25,-263.75 344.75,-263.75" />
<text xml:space="preserve" text-anchor="start" x="347.75" y="-269.3" font-family="Helvetica,sans-Serif" font-size="11.00" fill="#1a1a2e"> union_dues </text>
<text xml:space="preserve" text-anchor="start" x="409.25" y="-269.3" font-family="Helvetica,sans-Serif" font-size="11.00"> </text>
<text xml:space="preserve" text-anchor="start" x="412.25" y="-269.3" font-family="Helvetica,sans-Serif" font-size="9.00" fill="#e67e22">= _union_dues(row)</text>
<polygon fill="#b8cce8" stroke="none" points="577.25,-263.75 577.25,-281.75 584.25,-281.75 584.25,-263.75 577.25,-263.75" />
<text xml:space="preserve" text-anchor="start" x="579.25" y="-269.75" font-family="Helvetica,sans-Serif" font-size="11.00"> </text>
<polygon fill="#b8cce8" stroke="none" points="337.75,-245.75 337.75,-263.75 344.75,-263.75 344.75,-245.75 337.75,-245.75" />
<text xml:space="preserve" text-anchor="start" x="339.75" y="-251.75" font-family="Helvetica,sans-Serif" font-size="11.00"> </text>
<polygon fill="#fdf3e0" stroke="none" points="344.75,-245.75 344.75,-263.75 577.25,-263.75 577.25,-245.75 344.75,-245.75" />
<text xml:space="preserve" text-anchor="start" x="347.75" y="-251.75" font-family="Helvetica,sans-Serif" font-size="11.00" fill="#1a1a2e"> union_id </text>
<polygon fill="#b8cce8" stroke="none" points="577.25,-245.75 577.25,-263.75 584.25,-263.75 584.25,-245.75 577.25,-245.75" />
<text xml:space="preserve" text-anchor="start" x="579.25" y="-251.75" font-family="Helvetica,sans-Serif" font-size="11.00"> </text>
<polygon fill="#c0392b" stroke="none" points="337.75,-232 337.75,-245.75 344.75,-245.75 344.75,-232 337.75,-232" />
<polygon fill="#e6f3ea" stroke="none" points="344.75,-232 344.75,-245.75 577.25,-245.75 577.25,-232 344.75,-232" />
<text xml:space="preserve" text-anchor="start" x="414.5" y="-236.2" font-family="Helvetica,sans-Serif" font-weight="bold" font-size="9.00" fill="#7a5c00"> Type: commissioned </text>
<polygon fill="#c0392b" stroke="none" points="577.25,-232 577.25,-245.75 584.25,-245.75 584.25,-232 577.25,-232" />
<polygon fill="#b8cce8" stroke="none" points="337.75,-214 337.75,-232 344.75,-232 344.75,-214 337.75,-214" />
<text xml:space="preserve" text-anchor="start" x="339.75" y="-220" font-family="Helvetica,sans-Serif" font-size="11.00"> </text>
<polygon fill="#e6f3ea" stroke="none" points="344.75,-214 344.75,-232 577.25,-232 577.25,-214 344.75,-214" />
<text xml:space="preserve" text-anchor="start" x="347.75" y="-220" font-family="Helvetica,sans-Serif" font-size="11.00" fill="#1a1a2e"> commission_total </text>
<polygon fill="#b8cce8" stroke="none" points="577.25,-214 577.25,-232 584.25,-232 584.25,-214 577.25,-214" />
<text xml:space="preserve" text-anchor="start" x="579.25" y="-220" font-family="Helvetica,sans-Serif" font-size="11.00"> </text>
<polygon fill="#b8cce8" stroke="none" points="337.75,-196 337.75,-214 344.75,-214 344.75,-196 337.75,-196" />
<text xml:space="preserve" text-anchor="start" x="339.75" y="-202" font-family="Helvetica,sans-Serif" font-size="11.00"> </text>
<polygon fill="#e6f3ea" stroke="none" points="344.75,-196 344.75,-214 577.25,-214 577.25,-196 344.75,-196" />
<text xml:space="preserve" text-anchor="start" x="347.75" y="-202" font-family="Helvetica,sans-Serif" font-size="11.00" fill="#1a1a2e"> base_salary </text>
<polygon fill="#b8cce8" stroke="none" points="577.25,-196 577.25,-214 584.25,-214 584.25,-196 577.25,-196" />
<text xml:space="preserve" text-anchor="start" x="579.25" y="-202" font-family="Helvetica,sans-Serif" font-size="11.00"> </text>
<polygon fill="#c0392b" stroke="none" points="337.75,-182.25 337.75,-196 344.75,-196 344.75,-182.25 337.75,-182.25" />
<polygon fill="#f0e6f5" stroke="none" points="344.75,-182.25 344.75,-196 577.25,-196 577.25,-182.25 344.75,-182.25" />
<text xml:space="preserve" text-anchor="start" x="432.12" y="-186.45" font-family="Helvetica,sans-Serif" font-weight="bold" font-size="9.00" fill="#7a5c00"> military: yes </text>
<polygon fill="#c0392b" stroke="none" points="577.25,-182.25 577.25,-196 584.25,-196 584.25,-182.25 577.25,-182.25" />
<polygon fill="#b8cce8" stroke="none" points="337.75,-164.25 337.75,-182.25 344.75,-182.25 344.75,-164.25 337.75,-164.25" />
<text xml:space="preserve" text-anchor="start" x="339.75" y="-170.25" font-family="Helvetica,sans-Serif" font-size="11.00"> </text>
<polygon fill="#f0e6f5" stroke="none" points="344.75,-164.25 344.75,-182.25 577.25,-182.25 577.25,-164.25 344.75,-164.25" />
<text xml:space="preserve" text-anchor="start" x="347.75" y="-169.8" font-family="Helvetica,sans-Serif" font-size="11.00" fill="#1a1a2e"> military_stipend </text>
<text xml:space="preserve" text-anchor="start" x="428" y="-169.8" font-family="Helvetica,sans-Serif" font-size="11.00"> </text>
<text xml:space="preserve" text-anchor="start" x="431" y="-169.8" font-family="Helvetica,sans-Serif" font-size="9.00" fill="#e67e22">= _military_stipend(row)</text>
<polygon fill="#b8cce8" stroke="none" points="577.25,-164.25 577.25,-182.25 584.25,-182.25 584.25,-164.25 577.25,-164.25" />
<text xml:space="preserve" text-anchor="start" x="579.25" y="-170.25" font-family="Helvetica,sans-Serif" font-size="11.00"> </text>
<polygon fill="#b8cce8" stroke="none" points="337.75,-146.25 337.75,-164.25 344.75,-164.25 344.75,-146.25 337.75,-146.25" />
<text xml:space="preserve" text-anchor="start" x="339.75" y="-152.25" font-family="Helvetica,sans-Serif" font-size="11.00"> </text>
<polygon fill="#f0e6f5" stroke="none" points="344.75,-146.25 344.75,-164.25 577.25,-164.25 577.25,-146.25 344.75,-146.25" />
<text xml:space="preserve" text-anchor="start" x="347.75" y="-152.25" font-family="Helvetica,sans-Serif" font-size="11.00" fill="#1a1a2e"> service_years </text>
<polygon fill="#b8cce8" stroke="none" points="577.25,-146.25 577.25,-164.25 584.25,-164.25 584.25,-146.25 577.25,-146.25" />
<text xml:space="preserve" text-anchor="start" x="579.25" y="-152.25" font-family="Helvetica,sans-Serif" font-size="11.00"> </text>
<polygon fill="none" stroke="#c0392b" stroke-width="3" points="336.25,-144.75 336.25,-475 585.75,-475 585.75,-144.75 336.25,-144.75" />
</g>

<g id="edge1" class="edge">
<title>CommissionOrder-&gt;Employee</title>
<path fill="none" stroke="#e0e0e0" stroke-width="0.7" d="M310.92,-46.64C286.3,-58.43 267.04,-75.56 276,-99.25 287.63,-130.01 306.06,-159.17 326.88,-185.42" />
<polygon fill="#e0e0e0" stroke="#e0e0e0" stroke-width="0.7" points="310.84,-46.67 321.81,-46.74 315.63,-44.56 319.77,-42.72 319.77,-42.72 319.77,-42.72 315.63,-44.56 318.16,-38.51 310.84,-46.67" />
</g>

<g id="edge7" class="edge">
<title>CommissionOrder:CommissionOrder_amount_w-&gt;Employee:Employee_commission_total_w</title>
<path fill="none" stroke="#444444" stroke-width="2" stroke-dasharray="5,2" d="M330,-16C288.11,-16 289.94,-187.48 325.31,-218.29" />
<polygon fill="#444444" stroke="#444444" stroke-width="2" points="334.5,-222.07 323.54,-222.43 331.94,-221.56 325.06,-218.73 325.25,-218.26 325.44,-217.8 332.32,-220.63 326.96,-214.1 334.5,-222.07" />
<text xml:space="preserve" text-anchor="middle" x="301.86" y="-89.75" font-family="Helvetica,sans-Serif" font-size="10.00" fill="#444444">7</text>
</g>

<g id="node3" class="node">
<title>Department</title>
<polygon fill="#4a6fa5" stroke="none" points="247.62,-603.75 247.62,-619.75 328.38,-619.75 328.38,-603.75 247.62,-603.75" />
<text xml:space="preserve" text-anchor="start" x="254.25" y="-608.3" font-family="Helvetica,sans-Serif" font-weight="bold" font-size="11.00" fill="white"> Department </text>
<polygon fill="#b8cce8" stroke="none" points="247.62,-585.75 247.62,-603.75 254.62,-603.75 254.62,-585.75 247.62,-585.75" />
<text xml:space="preserve" text-anchor="start" x="249.62" y="-591.75" font-family="Helvetica,sans-Serif" font-size="11.00"> </text>
<polygon fill="#dbe4f0" stroke="none" points="254.62,-585.75 254.62,-603.75 321.38,-603.75 321.38,-585.75 254.62,-585.75" />
<text xml:space="preserve" text-anchor="start" x="257.62" y="-591.75" font-family="Helvetica,sans-Serif" font-size="11.00" fill="#1a1a2e"> total_salary </text>
<polygon fill="#b8cce8" stroke="none" points="321.38,-585.75 321.38,-603.75 328.38,-603.75 328.38,-585.75 321.38,-585.75" />
<text xml:space="preserve" text-anchor="start" x="323.38" y="-591.75" font-family="Helvetica,sans-Serif" font-size="11.00"> </text>
<polygon fill="none" stroke="#c0392b" stroke-width="3" points="246.12,-584.25 246.12,-621.25 329.88,-621.25 329.88,-584.25 246.12,-584.25" />
</g>

<g id="edge2" class="edge">
<title>Employee-&gt;Department</title>
<path fill="none" stroke="#e0e0e0" stroke-width="0.7" d="M318.39,-386.77C269.66,-420.67 220.74,-465.51 194,-520.5 181.22,-546.79 208.3,-568.01 236.63,-582.16" />
<polygon fill="#e0e0e0" stroke="#e0e0e0" stroke-width="0.7" points="318.39,-386.77 329.18,-384.85 322.71,-383.82 326.45,-381.26 326.45,-381.26 326.45,-381.26 322.71,-383.82 324.1,-377.42 318.39,-386.77" />
</g>

<g id="edge8" class="edge">
<title>Employee:Employee_salary_w-&gt;Department:Department_total_salary_w</title>
<path fill="none" stroke="#444444" stroke-width="2" stroke-dasharray="5,2" d="M336.75,-448.5C269.28,-448.5 252.91,-506.1 251.27,-572.67" />
<polygon fill="#444444" stroke="#444444" stroke-width="2" points="251.15,-582.31 246.77,-572.26 250.68,-579.74 250.77,-572.31 251.27,-572.31 251.77,-572.32 251.68,-579.76 255.77,-572.37 251.15,-582.31" />
<text xml:space="preserve" text-anchor="middle" x="258.73" y="-522.25" font-family="Helvetica,sans-Serif" font-size="10.00" fill="#444444">8</text>
</g>

<g id="node5" class="node">
<title>SysConfig</title>
<polygon fill="#4a6fa5" stroke="none" points="413.12,-612.75 413.12,-628.75 586.88,-628.75 586.88,-612.75 413.12,-612.75" />
<text xml:space="preserve" text-anchor="start" x="469.62" y="-617.3" font-family="Helvetica,sans-Serif" font-weight="bold" font-size="11.00" fill="white"> SysConfig </text>
<polygon fill="#b8cce8" stroke="none" points="413.12,-594.75 413.12,-612.75 420.12,-612.75 420.12,-594.75 413.12,-594.75" />
<text xml:space="preserve" text-anchor="start" x="415.12" y="-600.75" font-family="Helvetica,sans-Serif" font-size="11.00"> </text>
<polygon fill="#dbe4f0" stroke="none" points="420.12,-594.75 420.12,-612.75 579.88,-612.75 579.88,-594.75 420.12,-594.75" />
<text xml:space="preserve" text-anchor="start" x="423.12" y="-600.75" font-family="Helvetica,sans-Serif" font-size="11.00" fill="#1a1a2e"> max_hourly_weekly_salary </text>
<polygon fill="#b8cce8" stroke="none" points="579.88,-594.75 579.88,-612.75 586.88,-612.75 586.88,-594.75 579.88,-594.75" />
<text xml:space="preserve" text-anchor="start" x="581.88" y="-600.75" font-family="Helvetica,sans-Serif" font-size="11.00"> </text>
<polygon fill="#b8cce8" stroke="none" points="413.12,-576.75 413.12,-594.75 420.12,-594.75 420.12,-576.75 413.12,-576.75" />
<text xml:space="preserve" text-anchor="start" x="415.12" y="-582.75" font-family="Helvetica,sans-Serif" font-size="11.00"> </text>
<polygon fill="#dbe4f0" stroke="none" points="420.12,-576.75 420.12,-594.75 579.88,-594.75 579.88,-576.75 420.12,-576.75" />
<text xml:space="preserve" text-anchor="start" x="423.12" y="-582.75" font-family="Helvetica,sans-Serif" font-size="11.00" fill="#1a1a2e"> military_stipend_rate_per_year </text>
<polygon fill="#b8cce8" stroke="none" points="579.88,-576.75 579.88,-594.75 586.88,-594.75 586.88,-576.75 579.88,-576.75" />
<text xml:space="preserve" text-anchor="start" x="581.88" y="-582.75" font-family="Helvetica,sans-Serif" font-size="11.00"> </text>
<polygon fill="none" stroke="#4a6fa5" points="412.12,-575.75 412.12,-629.75 587.88,-629.75 587.88,-575.75 412.12,-575.75" />
</g>

<g id="edge3" class="edge">
<title>Employee-&gt;SysConfig</title>
<path fill="none" stroke="#e0e0e0" stroke-width="0.7" d="M485.04,-490.17C489.29,-521.88 493.24,-551.32 496.01,-571.99" />
<polygon fill="#e0e0e0" stroke="#e0e0e0" stroke-width="0.7" points="485.07,-490.41 488.2,-479.9 484.38,-485.22 483.77,-480.73 483.77,-480.73 483.77,-480.73 484.38,-485.22 479.28,-481.1 485.07,-490.41" />
</g>

<g id="edge5" class="edge">
<title>SysConfig:SysConfig_max_hourly_weekly_salary_w-&gt;Employee:Employee_max_hourly_weekly_salary_w</title>
<path fill="none" stroke="#444444" stroke-width="1.8" d="M412.12,-603.75C390.51,-603.75 356.26,-551.16 346.75,-531.75 336.58,-510.98 339.89,-503.53 337.75,-480.5 334.68,-447.49 307.44,-407.06 325.18,-396.9" />
<polygon fill="#444444" stroke="#444444" stroke-width="1.8" points="334.6,-394.95 325.73,-401.38 331.94,-395.91 324.89,-397.37 324.81,-396.98 324.73,-396.59 331.77,-395.12 323.9,-392.57 334.6,-394.95" />
<text xml:space="preserve" text-anchor="middle" x="349.38" y="-522.25" font-family="Helvetica,sans-Serif" font-size="10.00" fill="#444444">1</text>
</g>

<g id="edge6" class="edge">
<title>SysConfig:SysConfig_military_stipend_rate_per_year_w-&gt;Employee:Employee_military_stipend_rate_per_year_w</title>
<path fill="none" stroke="#444444" stroke-width="1.8" d="M416.62,-575.75C416.62,-520.79 356.57,-532.14 337.75,-480.5 317.99,-426.26 280.48,-352.16 324.84,-341.74" />
<polygon fill="#444444" stroke="#444444" stroke-width="1.8" points="334.57,-340.73 325.09,-346.24 331.82,-341.42 324.66,-342.16 324.62,-341.76 324.58,-341.36 331.74,-340.62 324.16,-337.29 334.57,-340.73" />
<text xml:space="preserve" text-anchor="middle" x="393" y="-522.25" font-family="Helvetica,sans-Serif" font-size="10.00" fill="#444444">2</text>
</g>
<path d="M585.75,-220.0 C607.75,-220.0 607.75,-445.05 585.75,-445.05" stroke="#445544" stroke-width="1.2" fill="none" /><polygon points="585.75,-445.05 589.75,-449.05 589.75,-441.05" stroke="#445544" fill="#445544" /><text x="610.8" y="-328.5" font-family="Helvetica,sans-Serif" font-size="10" fill="#445544">3</text><path d="M585.75,-202.0 C631.75,-202.0 631.75,-445.05 585.75,-445.05" stroke="#445544" stroke-width="1.2" fill="none" /><polygon points="585.75,-445.05 589.75,-449.05 589.75,-441.05" stroke="#445544" fill="#445544" /><text x="634.8" y="-319.5" font-family="Helvetica,sans-Serif" font-size="10" fill="#445544">3</text><path d="M585.75,-409.5 C655.75,-409.5 655.75,-269.3 585.75,-269.3" stroke="#445544" stroke-width="1.2" fill="none" /><polygon points="585.75,-269.3 589.75,-273.3 589.75,-265.3" stroke="#445544" fill="#445544" /><text x="658.8" y="-335.4" font-family="Helvetica,sans-Serif" font-size="10" fill="#445544">4</text><path d="M585.75,-445.05 C679.75,-445.05 679.75,-373.05 585.75,-373.05" stroke="#445544" stroke-width="1.2" fill="none" /><polygon points="585.75,-373.05 589.75,-377.05 589.75,-369.05" stroke="#445544" fill="#445544" /><text x="682.8" y="-405.1" font-family="Helvetica,sans-Serif" font-size="10" fill="#445544">5</text><path d="M585.75,-337.5 C703.75,-337.5 703.75,-169.8 585.75,-169.8" stroke="#445544" stroke-width="1.2" fill="none" /><polygon points="585.75,-169.8 589.75,-173.8 589.75,-165.8" stroke="#445544" fill="#445544" /><text x="706.8" y="-249.7" font-family="Helvetica,sans-Serif" font-size="10" fill="#445544">6</text></g>
</svg>