<svg xmlns="http://www.w3.org/2000/svg" width="859pt" height="510pt" viewBox="18.80 18.80 859.40 510.40">
<g id="graph0" class="graph" transform="scale(1 1) rotate(0) translate(28.8 519.17)">
<title>logic</title>
<polygon fill="white" stroke="none" points="-28.8,28.8 -28.8,-519.17 868.29,-519.17 868.29,28.8 -28.8,28.8" />
<text xml:space="preserve" text-anchor="start" x="282.87" y="-475.02" font-family="Helvetica,sans-Serif" font-weight="bold" font-size="13.00">Logic Diagram — samples/basic_demo_eai</text>
<g id="clust4" class="cluster">
<title>cluster_events</title>
</g>

<g id="node1" class="node">
<title>TRIGGER</title>
<polygon fill="#e8f5e9" stroke="none" points="90.86,-23.5 90.86,-56.5 191.36,-56.5 191.36,-23.5 90.86,-23.5" />
<text xml:space="preserve" text-anchor="start" x="99.86" y="-38.05" font-family="Helvetica,sans-Serif" font-weight="bold" font-size="11.00" fill="#27ae60">⚡ Item inserted</text>
<polygon fill="none" stroke="#27ae60" stroke-width="2" points="91.86,-24.5 91.86,-55.5 190.36,-55.5 190.36,-24.5 91.86,-24.5" />
</g>

<g id="node3" class="node">
<title>Item</title>
<polygon fill="#4a6fa5" stroke="none" points="338.36,-59 338.36,-75 491.86,-75 491.86,-59 338.36,-59" />
<text xml:space="preserve" text-anchor="start" x="400.86" y="-63.55" font-family="Helvetica,sans-Serif" font-weight="bold" font-size="11.00" fill="white"> Item </text>
<polygon fill="#b8cce8" stroke="none" points="338.36,-41 338.36,-59 345.36,-59 345.36,-41 338.36,-41" />
<text xml:space="preserve" text-anchor="start" x="340.36" y="-47" font-family="Helvetica,sans-Serif" font-size="11.00"> </text>
<polygon fill="#dbe4f0" stroke="none" points="345.36,-41 345.36,-59 484.86,-59 484.86,-41 345.36,-41" />
<text xml:space="preserve" text-anchor="start" x="348.36" y="-46.55" font-family="Helvetica,sans-Serif" font-size="11.00" fill="#1a1a2e"> amount </text>
<text xml:space="preserve" text-anchor="start" x="390.36" y="-46.55" font-family="Helvetica,sans-Serif" font-size="11.00"> </text>
<text xml:space="preserve" text-anchor="start" x="393.36" y="-46.55" font-family="Helvetica,sans-Serif" font-size="9.00" fill="#e67e22">= quantity * unit_price</text>
<polygon fill="#b8cce8" stroke="none" points="484.86,-41 484.86,-59 491.86,-59 491.86,-41 484.86,-41" />
<text xml:space="preserve" text-anchor="start" x="486.86" y="-47" font-family="Helvetica,sans-Serif" font-size="11.00"> </text>
<polygon fill="#b8cce8" stroke="none" points="338.36,-23 338.36,-41 345.36,-41 345.36,-23 338.36,-23" />
<text xml:space="preserve" text-anchor="start" x="340.36" y="-29" font-family="Helvetica,sans-Serif" font-size="11.00"> </text>
<polygon fill="#dbe4f0" stroke="none" points="345.36,-23 345.36,-41 484.86,-41 484.86,-23 345.36,-23" />
<text xml:space="preserve" text-anchor="start" x="348.36" y="-29" font-family="Helvetica,sans-Serif" font-size="11.00" fill="#1a1a2e"> quantity </text>
<polygon fill="#b8cce8" stroke="none" points="484.86,-23 484.86,-41 491.86,-41 491.86,-23 484.86,-23" />
<text xml:space="preserve" text-anchor="start" x="486.86" y="-29" font-family="Helvetica,sans-Serif" font-size="11.00"> </text>
<polygon fill="#b8cce8" stroke="none" points="338.36,-5 338.36,-23 345.36,-23 345.36,-5 338.36,-5" />
<text xml:space="preserve" text-anchor="start" x="340.36" y="-11" font-family="Helvetica,sans-Serif" font-size="11.00"> </text>
<polygon fill="#dbe4f0" stroke="none" points="345.36,-5 345.36,-23 484.86,-23 484.86,-5 345.36,-5" />
<text xml:space="preserve" text-anchor="start" x="348.36" y="-11" font-family="Helvetica,sans-Serif" font-size="11.00" fill="#1a1a2e"> unit_price </text>
<polygon fill="#b8cce8" stroke="none" points="484.86,-5 484.86,-23 491.86,-23 491.86,-5 484.86,-5" />
<text xml:space="preserve" text-anchor="start" x="486.86" y="-11" font-family="Helvetica,sans-Serif" font-size="11.00"> </text>
<polygon fill="none" stroke="#4a6fa5" points="337.36,-4 337.36,-76 492.86,-76 492.86,-4 337.36,-4" />
</g>

<g id="edge4" class="edge">
<title>TRIGGER-&gt;Item</title>
<path fill="none" stroke="#27ae60" stroke-width="2" d="M199.18,-40C238.55,-40 277.91,-40 317.28,-40" />
<polygon fill="#27ae60" stroke="#27ae60" stroke-width="2" points="327.06,-40 317.06,-44.5 324.5,-40.5 317.06,-40.5 317.06,-40 317.06,-39.5 324.5,-39.5 317.06,-35.5 327.06,-40" />
</g>

<g id="node2" class="node">
<title>Customer</title>
<polygon fill="#4a6fa5" stroke="none" points="23.36,-331.5 23.36,-347.5 86.86,-347.5 86.86,-331.5 23.36,-331.5" />
<text xml:space="preserve" text-anchor="start" x="26.24" y="-336.05" font-family="Helvetica,sans-Serif" font-weight="bold" font-size="11.00" fill="white"> Customer </text>
<polygon fill="#b8cce8" stroke="none" points="23.36,-313.5 23.36,-331.5 30.36,-331.5 30.36,-313.5 23.36,-313.5" />
<text xml:space="preserve" text-anchor="start" x="25.36" y="-319.5" font-family="Helvetica,sans-Serif" font-size="11.00"> </text>
<polygon fill="#dbe4f0" stroke="none" points="30.36,-313.5 30.36,-331.5 79.86,-331.5 79.86,-313.5 30.36,-313.5" />
<text xml:space="preserve" text-anchor="start" x="33.36" y="-319.5" font-family="Helvetica,sans-Serif" font-size="11.00" fill="#1a1a2e"> balance </text>
<polygon fill="#b8cce8" stroke="none" points="79.86,-313.5 79.86,-331.5 86.86,-331.5 86.86,-313.5 79.86,-313.5" />
<text xml:space="preserve" text-anchor="start" x="81.86" y="-319.5" font-family="Helvetica,sans-Serif" font-size="11.00"> </text>
<polygon fill="none" stroke="#c0392b" stroke-width="3" points="21.86,-312 21.86,-349 88.36,-349 88.36,-312 21.86,-312" />
</g>

<g id="node4" class="node">
<title>Order</title>
<polygon fill="#4a6fa5" stroke="none" points="98.99,-194.25 98.99,-210.25 187.24,-210.25 187.24,-194.25 98.99,-194.25" />
<text xml:space="preserve" text-anchor="start" x="125.11" y="-198.8" font-family="Helvetica,sans-Serif" font-weight="bold" font-size="11.00" fill="white"> Order </text>
<polygon fill="#b8cce8" stroke="none" points="98.99,-176.25 98.99,-194.25 105.99,-194.25 105.99,-176.25 98.99,-176.25" />
<text xml:space="preserve" text-anchor="start" x="100.99" y="-182.25" font-family="Helvetica,sans-Serif" font-size="11.00"> </text>
<polygon fill="#dbe4f0" stroke="none" points="105.99,-176.25 105.99,-194.25 180.24,-194.25 180.24,-176.25 105.99,-176.25" />
<text xml:space="preserve" text-anchor="start" x="108.99" y="-182.25" font-family="Helvetica,sans-Serif" font-size="11.00" fill="#1a1a2e"> amount_total </text>
<polygon fill="#b8cce8" stroke="none" points="180.24,-176.25 180.24,-194.25 187.24,-194.25 187.24,-176.25 180.24,-176.25" />
<text xml:space="preserve" text-anchor="start" x="182.24" y="-182.25" font-family="Helvetica,sans-Serif" font-size="11.00"> </text>
<polygon fill="none" stroke="#4a6fa5" points="97.99,-175.25 97.99,-211.25 188.24,-211.25 188.24,-175.25 97.99,-175.25" />
</g>

<g id="edge1" class="edge">
<title>Item-&gt;Order</title>
<path fill="none" stroke="#e0e0e0" stroke-width="0.7" d="M319.87,-65.62C282.05,-78.17 239.46,-95.96 205.11,-120 185.34,-133.84 167.96,-155.39 156.67,-171.36" />
<polygon fill="#e0e0e0" stroke="#e0e0e0" stroke-width="0.7" points="319.64,-65.7 330.54,-66.9 324.62,-64.09 328.93,-62.69 328.93,-62.69 328.93,-62.69 324.62,-64.09 327.77,-58.34 319.64,-65.7" />
</g>

<g id="edge6" class="edge">
<title>Item:Item_amount_w-&gt;Order:Order_amount_total_w</title>
<path fill="none" stroke="#444444" stroke-width="2" stroke-dasharray="5,2" d="M337.36,-50C272.86,-50 274.32,-101.44 217.11,-131.25 172.88,-154.3 113.74,-126.38 103.9,-163.09" />
<polygon fill="#444444" stroke="#444444" stroke-width="2" points="102.77,-172.83 99.46,-162.38 102.57,-170.23 103.43,-162.84 103.93,-162.9 104.42,-162.95 103.56,-170.34 108.4,-163.42 102.77,-172.83" />
<text xml:space="preserve" text-anchor="middle" x="235.26" y="-121.75" font-family="Helvetica,sans-Serif" font-size="10.00" fill="#444444">3</text>
</g>

<g id="node6" class="node">
<title>Product</title>
<polygon fill="#4a6fa5" stroke="none" points="567.86,-331.5 567.86,-347.5 640.36,-347.5 640.36,-331.5 567.86,-331.5" />
<text xml:space="preserve" text-anchor="start" x="580.11" y="-336.05" font-family="Helvetica,sans-Serif" font-weight="bold" font-size="11.00" fill="white"> Product </text>
<polygon fill="#b8cce8" stroke="none" points="567.86,-313.5 567.86,-331.5 574.86,-331.5 574.86,-313.5 567.86,-313.5" />
<text xml:space="preserve" text-anchor="start" x="569.86" y="-319.5" font-family="Helvetica,sans-Serif" font-size="11.00"> </text>
<polygon fill="#dbe4f0" stroke="none" points="574.86,-313.5 574.86,-331.5 633.36,-331.5 633.36,-313.5 574.86,-313.5" />
<text xml:space="preserve" text-anchor="start" x="577.86" y="-319.5" font-family="Helvetica,sans-Serif" font-size="11.00" fill="#1a1a2e"> unit_price </text>
<polygon fill="#b8cce8" stroke="none" points="633.36,-313.5 633.36,-331.5 640.36,-331.5 640.36,-313.5 633.36,-313.5" />
<text xml:space="preserve" text-anchor="start" x="635.36" y="-319.5" font-family="Helvetica,sans-Serif" font-size="11.00"> </text>
<polygon fill="none" stroke="#4a6fa5" points="566.86,-312.5 566.86,-348.5 641.36,-348.5 641.36,-312.5 566.86,-312.5" />
</g>

<g id="edge2" class="edge">
<title>Item-&gt;Product</title>
<path fill="none" stroke="#e0e0e0" stroke-width="0.7" d="M445.98,-88.12C487.74,-151.87 560.47,-262.88 590.52,-308.75" />
<polygon fill="#e0e0e0" stroke="#e0e0e0" stroke-width="0.7" points="446.16,-88.39 444.44,-77.56 443.29,-84.01 440.81,-80.22 440.81,-80.22 440.81,-80.22 443.29,-84.01 436.92,-82.49 446.16,-88.39" />
</g>

<g id="edge3" class="edge">
<title>Order-&gt;Customer</title>
<path fill="none" stroke="#e0e0e0" stroke-width="0.7" d="M80.37,-205.6C52.02,-214.2 21.13,-229.2 4.11,-255.25 -7.26,-272.66 6.95,-292.02 23.23,-306.61" />
<polygon fill="#e0e0e0" stroke="#e0e0e0" stroke-width="0.7" points="80.41,-205.59 91.25,-207.22 85.45,-204.18 89.81,-202.95 89.81,-202.95 89.81,-202.95 85.45,-204.18 88.82,-198.55 80.41,-205.59" />
</g>

<g id="edge7" class="edge">
<title>Order:Order_amount_total_w-&gt;Customer:Customer_balance_w</title>
<path fill="none" stroke="#444444" stroke-width="2" stroke-dasharray="5,2" d="M97.99,-185.25C37.25,-185.25 27.88,-240.15 26.95,-300.39" />
<polygon fill="#444444" stroke="#444444" stroke-width="2" points="26.88,-310.06 22.45,-300.03 26.4,-307.5 26.45,-300.06 26.95,-300.06 27.45,-300.07 27.4,-307.5 31.45,-300.1 26.88,-310.06" />
<text xml:space="preserve" text-anchor="middle" x="32.61" y="-257" font-family="Helvetica,sans-Serif" font-size="10.00" fill="#444444">4</text>
</g>

<g id="node7" class="node">
<title>evt__send_order_to_kafka</title>
<polygon fill="#e8f5e9" stroke="none" points="170.74,-316.38 170.74,-344.62 293.49,-344.62 293.49,-316.38 170.74,-316.38" />
<text xml:space="preserve" text-anchor="start" x="177.74" y="-327.12" font-family="Helvetica,sans-Serif" font-size="10.00" fill="#27ae60">⚡ _send_order_to_kafka</text>
<polygon fill="none" stroke="#27ae60" points="170.74,-316.38 170.74,-344.62 293.49,-344.62 293.49,-316.38 170.74,-316.38" />
</g>

<g id="edge8" class="edge">
<title>Order-&gt;evt__send_order_to_kafka</title>
<path fill="none" stroke="#27ae60" stroke-width="1.2" stroke-dasharray="5,2" d="M156.68,-214.86C172.23,-238.5 197.76,-277.29 214.75,-303.11" />
<polygon fill="#27ae60" stroke="#27ae60" stroke-width="1.2" points="220.22,-311.42 210.96,-305.54 218.19,-308.52 214.64,-303.12 214.72,-303.07 214.81,-303.01 218.36,-308.41 218.48,-300.6 220.22,-311.42" />
<text xml:space="preserve" text-anchor="middle" x="213.16" y="-257" font-family="Helvetica,sans-Serif" font-size="10.00" fill="#27ae60">after_flush</text>
</g>

<g id="node5" class="node">
<title>OrderB2bMessage</title>
<polygon fill="#4a6fa5" stroke="none" points="723.74,-330.5 723.74,-346.5 830.49,-346.5 830.49,-330.5 723.74,-330.5" />
<text xml:space="preserve" text-anchor="start" x="725.74" y="-335.05" font-family="Helvetica,sans-Serif" font-weight="bold" font-size="11.00" fill="white"> OrderB2bMessage </text>
<polygon fill="#dbe4f0" stroke="none" points="757.32,-314.5 757.32,-330.5 796.91,-330.5 796.91,-314.5 757.32,-314.5" />
<text xml:space="preserve" text-anchor="start" x="774.11" y="-319.5" font-family="Helvetica,sans-Serif" font-size="11.00" fill="#1a1a2e">  </text>
<polygon fill="none" stroke="#4a6fa5" points="722.74,-313.5 722.74,-347.5 831.49,-347.5 831.49,-313.5 722.74,-313.5" />
</g>

<g id="node8" class="node">
<title>evt__publish_order_b2b</title>
<polygon fill="#e8f5e9" stroke="none" points="374.74,-316.38 374.74,-344.62 485.49,-344.62 485.49,-316.38 374.74,-316.38" />
<text xml:space="preserve" text-anchor="start" x="381.74" y="-327.12" font-family="Helvetica,sans-Serif" font-size="10.00" fill="#27ae60">⚡ _publish_order_b2b</text>
<polygon fill="none" stroke="#27ae60" points="374.74,-316.38 374.74,-344.62 485.49,-344.62 485.49,-316.38 374.74,-316.38" />
</g>

<g id="edge9" class="edge">
<title>OrderB2bMessage-&gt;evt__publish_order_b2b</title>
<path fill="none" stroke="#27ae60" stroke-width="1.2" stroke-dasharray="5,2" d="M756.25,-351.19C738.3,-367.43 710.82,-388.76 682.11,-397.92 616.06,-418.97 592.22,-418.81 526.11,-397.92 499.75,-389.58 474.34,-371.12 456.3,-355.63" />
<polygon fill="#27ae60" stroke="#27ae60" stroke-width="1.2" points="449.15,-349.28 459.62,-352.56 451.87,-351.56 456.7,-355.85 456.63,-355.92 456.57,-356 451.73,-351.71 453.64,-359.29 449.15,-349.28" />
<text xml:space="preserve" text-anchor="middle" x="604.11" y="-409.38" font-family="Helvetica,sans-Serif" font-size="10.00" fill="#27ae60">after_flush</text>
</g>

<g id="edge5" class="edge">
<title>Product:Product_unit_price_w-&gt;Item:Item_unit_price_w</title>
<path fill="none" stroke="#444444" stroke-width="1.8" d="M566.86,-322.5C486.26,-322.5 277.46,-47.96 325.79,-16.86" />
<polygon fill="#444444" stroke="#444444" stroke-width="1.8" points="335.24,-14.53 326.61,-21.29 332.61,-15.59 325.62,-17.31 325.53,-16.92 325.43,-16.53 332.41,-14.81 324.45,-12.55 335.24,-14.53" />
<text xml:space="preserve" text-anchor="middle" x="427.18" y="-189.38" font-family="Helvetica,sans-Serif" font-size="10.00" fill="#444444">1</text>
</g>
<path d="M492.86,-11.0 C514.86,-11.0 514.86,-46.55 492.86,-46.55" stroke="#445544" stroke-width="1.2" fill="none" /><polygon points="492.86,-46.55 496.86,-50.55 496.86,-42.55" stroke="#445544" fill="#445544" /><text x="517.9" y="-24.8" font-family="Helvetica,sans-Serif" font-size="10" fill="#445544">2</text></g>
</svg>