<svg xmlns="http://www.w3.org/2000/svg" width="1125pt" height="825pt" viewBox="18.80 18.80 1124.95 825.40">
<g id="graph0" class="graph" transform="scale(1 1) rotate(0) translate(28.8 833.8)">
<title>logic</title>
<polygon fill="white" stroke="none" points="-28.8,28.8 -28.8,-833.8 1119.75,-833.8 1119.75,28.8 -28.8,28.8" />
<text xml:space="preserve" text-anchor="start" x="366.22" y="-789.65" font-family="Helvetica,sans-Serif" font-weight="bold" font-size="13.00">Logic Diagram — samples/allocate_dept_account_demo</text>
<g id="clust6" class="cluster">
<title>cluster_events</title>
</g>

<g id="node1" class="node">
<title>TRIGGER</title>
<polygon fill="#e8f5e9" stroke="none" points="108.82,-746.5 108.82,-779.5 303.07,-779.5 303.07,-746.5 108.82,-746.5" />
<text xml:space="preserve" text-anchor="start" x="117.82" y="-761.05" font-family="Helvetica,sans-Serif" font-weight="bold" font-size="11.00" fill="#27ae60">⚡ ChargeDeptAllocation inserted</text>
<polygon fill="none" stroke="#27ae60" stroke-width="2" points="109.82,-747.5 109.82,-778.5 302.07,-778.5 302.07,-747.5 109.82,-747.5" />
</g>

<g id="node3" class="node">
<title>ChargeDeptAllocation</title>
<polygon fill="#4a6fa5" stroke="none" points="120.57,-672 120.57,-688 291.32,-688 291.32,-672 120.57,-672" />
<text xml:space="preserve" text-anchor="start" x="144.82" y="-676.55" font-family="Helvetica,sans-Serif" font-weight="bold" font-size="11.00" fill="white"> ChargeDeptAllocation </text>
<polygon fill="#b8cce8" stroke="none" points="120.57,-654 120.57,-672 127.57,-672 127.57,-654 120.57,-654" />
<text xml:space="preserve" text-anchor="start" x="122.57" y="-660" font-family="Helvetica,sans-Serif" font-size="11.00"> </text>
<polygon fill="#dbe4f0" stroke="none" points="127.57,-654 127.57,-672 284.32,-672 284.32,-654 127.57,-654" />
<text xml:space="preserve" text-anchor="start" x="130.57" y="-659.55" font-family="Helvetica,sans-Serif" font-size="11.00" fill="#1a1a2e"> amount </text>
<text xml:space="preserve" text-anchor="start" x="172.57" y="-659.55" font-family="Helvetica,sans-Serif" font-size="11.00"> </text>
<text xml:space="preserve" text-anchor="start" x="175.57" y="-659.55" font-family="Helvetica,sans-Serif" font-size="9.00" fill="#e67e22">= (            charge.amount...</text>
<polygon fill="#b8cce8" stroke="none" points="284.32,-654 284.32,-672 291.32,-672 291.32,-654 284.32,-654" />
<text xml:space="preserve" text-anchor="start" x="286.32" y="-660" font-family="Helvetica,sans-Serif" font-size="11.00"> </text>
<polygon fill="#b8cce8" stroke="none" points="120.57,-636 120.57,-654 127.57,-654 127.57,-636 120.57,-636" />
<text xml:space="preserve" text-anchor="start" x="122.57" y="-642" font-family="Helvetica,sans-Serif" font-size="11.00"> </text>
<polygon fill="#dbe4f0" stroke="none" points="127.57,-636 127.57,-654 284.32,-654 284.32,-636 127.57,-636" />
<text xml:space="preserve" text-anchor="start" x="130.57" y="-642" font-family="Helvetica,sans-Serif" font-size="11.00" fill="#1a1a2e"> charge </text>
<polygon fill="#b8cce8" stroke="none" points="284.32,-636 284.32,-654 291.32,-654 291.32,-636 284.32,-636" />
<text xml:space="preserve" text-anchor="start" x="286.32" y="-642" font-family="Helvetica,sans-Serif" font-size="11.00"> </text>
<polygon fill="#b8cce8" stroke="none" points="120.57,-618 120.57,-636 127.57,-636 127.57,-618 120.57,-618" />
<text xml:space="preserve" text-anchor="start" x="122.57" y="-624" font-family="Helvetica,sans-Serif" font-size="11.00"> </text>
<polygon fill="#dbe4f0" stroke="none" points="127.57,-618 127.57,-636 284.32,-636 284.32,-618 127.57,-618" />
<text xml:space="preserve" text-anchor="start" x="130.57" y="-624" font-family="Helvetica,sans-Serif" font-size="11.00" fill="#1a1a2e"> percent </text>
<polygon fill="#b8cce8" stroke="none" points="284.32,-618 284.32,-636 291.32,-636 291.32,-618 284.32,-618" />
<text xml:space="preserve" text-anchor="start" x="286.32" y="-624" font-family="Helvetica,sans-Serif" font-size="11.00"> </text>
<polygon fill="none" stroke="#4a6fa5" points="119.57,-617 119.57,-689 292.32,-689 292.32,-617 119.57,-617" />
</g>

<g id="edge14" class="edge">
<title>TRIGGER-&gt;ChargeDeptAllocation</title>
<path fill="none" stroke="#27ae60" stroke-width="2" d="M205.95,-742.75C205.95,-730.18 205.95,-717.6 205.95,-705.02" />
<polygon fill="#27ae60" stroke="#27ae60" stroke-width="2" points="205.95,-695.4 210.45,-705.4 206.45,-697.96 206.45,-705.4 205.95,-705.4 205.45,-705.4 205.45,-697.96 201.45,-705.4 205.95,-695.4" />
</g>

<g id="node2" class="node">
<title>Charge</title>
<polygon fill="#4a6fa5" stroke="none" points="473.7,-757 473.7,-773 617.45,-773 617.45,-757 473.7,-757" />
<text xml:space="preserve" text-anchor="start" x="523.45" y="-761.55" font-family="Helvetica,sans-Serif" font-weight="bold" font-size="11.00" fill="white"> Charge </text>
<polygon fill="#b8cce8" stroke="none" points="473.7,-739 473.7,-757 480.7,-757 480.7,-739 473.7,-739" />
<text xml:space="preserve" text-anchor="start" x="475.7" y="-745" font-family="Helvetica,sans-Serif" font-size="11.00"> </text>
<polygon fill="#dbe4f0" stroke="none" points="480.7,-739 480.7,-757 610.45,-757 610.45,-739 480.7,-739" />
<text xml:space="preserve" text-anchor="start" x="483.7" y="-745" font-family="Helvetica,sans-Serif" font-size="11.00" fill="#1a1a2e"> total_distributed_amount </text>
<polygon fill="#b8cce8" stroke="none" points="610.45,-739 610.45,-757 617.45,-757 617.45,-739 610.45,-739" />
<text xml:space="preserve" text-anchor="start" x="612.45" y="-745" font-family="Helvetica,sans-Serif" font-size="11.00"> </text>
<polygon fill="#b8cce8" stroke="none" points="473.7,-721 473.7,-739 480.7,-739 480.7,-721 473.7,-721" />
<text xml:space="preserve" text-anchor="start" x="475.7" y="-727" font-family="Helvetica,sans-Serif" font-size="11.00"> </text>
<polygon fill="#dbe4f0" stroke="none" points="480.7,-721 480.7,-739 610.45,-739 610.45,-721 480.7,-721" />
<text xml:space="preserve" text-anchor="start" x="483.7" y="-727" font-family="Helvetica,sans-Serif" font-size="11.00" fill="#1a1a2e"> amount </text>
<polygon fill="#b8cce8" stroke="none" points="610.45,-721 610.45,-739 617.45,-739 617.45,-721 610.45,-721" />
<text xml:space="preserve" text-anchor="start" x="612.45" y="-727" font-family="Helvetica,sans-Serif" font-size="11.00"> </text>
<polygon fill="none" stroke="#4a6fa5" points="472.7,-720 472.7,-774 618.45,-774 618.45,-720 472.7,-720" />
</g>

<g id="node8" class="node">
<title>Project</title>
<polygon fill="#4a6fa5" stroke="none" points="718.7,-739 718.7,-755 809.2,-755 809.2,-739 718.7,-739" />
<text xml:space="preserve" text-anchor="start" x="742.2" y="-743.55" font-family="Helvetica,sans-Serif" font-weight="bold" font-size="11.00" fill="white"> Project </text>
<polygon fill="#b8cce8" stroke="none" points="718.7,-721 718.7,-739 725.7,-739 725.7,-721 718.7,-721" />
<text xml:space="preserve" text-anchor="start" x="720.7" y="-727" font-family="Helvetica,sans-Serif" font-size="11.00"> </text>
<polygon fill="#dbe4f0" stroke="none" points="725.7,-721 725.7,-739 802.2,-739 802.2,-721 725.7,-721" />
<text xml:space="preserve" text-anchor="start" x="728.7" y="-727" font-family="Helvetica,sans-Serif" font-size="11.00" fill="#1a1a2e"> total_charges </text>
<polygon fill="#b8cce8" stroke="none" points="802.2,-721 802.2,-739 809.2,-739 809.2,-721 802.2,-721" />
<text xml:space="preserve" text-anchor="start" x="804.2" y="-727" font-family="Helvetica,sans-Serif" font-size="11.00"> </text>
<polygon fill="none" stroke="#4a6fa5" points="717.7,-720 717.7,-756 810.2,-756 810.2,-720 717.7,-720" />
</g>

<g id="edge1" class="edge">
<title>Charge-&gt;Project</title>
<path fill="none" stroke="#e0e0e0" stroke-width="0.7" d="M636.44,-743.26C661.38,-742.22 687.65,-741.13 709.75,-740.21" />
<polygon fill="#e0e0e0" stroke="#e0e0e0" stroke-width="0.7" points="636.45,-743.26 626.27,-739.18 631.22,-743.48 626.69,-743.67 626.69,-743.67 626.69,-743.67 631.22,-743.48 626.64,-748.17 636.45,-743.26" />
</g>

<g id="edge19" class="edge">
<title>Charge:Charge_amount_w-&gt;Project:Project_total_charges_w</title>
<path fill="none" stroke="#444444" stroke-width="2" stroke-dasharray="5,2" d="M477.2,-720C477.2,-670.06 640.19,-722.08 705.37,-729.21" />
<polygon fill="#444444" stroke="#444444" stroke-width="2" points="715.27,-729.84 705,-733.7 712.68,-730.18 705.25,-729.71 705.29,-729.21 705.32,-728.71 712.74,-729.18 705.57,-724.72 715.27,-729.84" />
<text xml:space="preserve" text-anchor="middle" x="654.07" y="-722.05" font-family="Helvetica,sans-Serif" font-size="10.00" fill="#444444">9</text>
</g>

<g id="node13" class="node">
<title>evt_identify_project_for_charge</title>
<polygon fill="#e8f5e9" stroke="none" points="134.07,-471.88 134.07,-500.12 277.82,-500.12 277.82,-471.88 134.07,-471.88" />
<text xml:space="preserve" text-anchor="start" x="141.07" y="-482.62" font-family="Helvetica,sans-Serif" font-size="10.00" fill="#27ae60">⚡ identify_project_for_charge</text>
<polygon fill="none" stroke="#27ae60" points="134.07,-471.88 134.07,-500.12 277.82,-500.12 277.82,-471.88 134.07,-471.88" />
</g>

<g id="edge23" class="edge">
<title>Charge-&gt;evt_identify_project_for_charge</title>
<path fill="none" stroke="#27ae60" stroke-width="1.2" stroke-dasharray="5,2" d="M464.97,-762.81C447.96,-761.99 431.34,-757.43 418.7,-746 380.57,-711.51 429.11,-553.27 393.7,-516 369.1,-490.12 331.71,-480.81 296.83,-478.67" />
<polygon fill="#27ae60" stroke="#27ae60" stroke-width="1.2" points="287.07,-478.27 297.25,-474.18 290.61,-478.31 297.07,-478.57 297.06,-478.67 297.06,-478.77 290.6,-478.51 296.88,-483.17 287.07,-478.27" />
<text xml:space="preserve" text-anchor="middle" x="429.2" y="-759.46" font-family="Helvetica,sans-Serif" font-size="10.00" fill="#27ae60">early</text>
</g>

<g id="node14" class="node">
<title>evt_check_active_funding</title>
<polygon fill="#e8f5e9" stroke="none" points="145.32,-532.88 145.32,-561.12 266.57,-561.12 266.57,-532.88 145.32,-532.88" />
<text xml:space="preserve" text-anchor="start" x="152.32" y="-543.62" font-family="Helvetica,sans-Serif" font-size="10.00" fill="#27ae60">⚡ check_active_funding</text>
<polygon fill="none" stroke="#27ae60" points="145.32,-532.88 145.32,-561.12 266.57,-561.12 266.57,-532.88 145.32,-532.88" />
</g>

<g id="edge24" class="edge">
<title>Charge-&gt;evt_check_active_funding</title>
<path fill="none" stroke="#27ae60" stroke-width="1.2" stroke-dasharray="5,2" d="M465.01,-739.93C447.79,-734.93 431.07,-726.86 418.7,-714 383.04,-676.93 428.89,-638.51 393.7,-601 365.95,-571.43 323.12,-557.72 285.47,-551.5" />
<polygon fill="#27ae60" stroke="#27ae60" stroke-width="1.2" points="275.94,-550.08 286.49,-547.1 279.45,-550.5 285.84,-551.45 285.83,-551.55 285.81,-551.65 279.42,-550.7 285.17,-556 275.94,-550.08" />
<text xml:space="preserve" text-anchor="middle" x="429.2" y="-730.46" font-family="Helvetica,sans-Serif" font-size="10.00" fill="#27ae60">early</text>
</g>

<g id="edge3" class="edge">
<title>ChargeDeptAllocation-&gt;Charge</title>
<path fill="none" stroke="#e0e0e0" stroke-width="0.7" d="M309.93,-681.67C359.73,-695.54 418.58,-711.92 464.89,-724.82" />
<polygon fill="#e0e0e0" stroke="#e0e0e0" stroke-width="0.7" points="309.96,-681.68 301.53,-674.66 304.92,-680.28 300.55,-679.06 300.55,-679.06 300.55,-679.06 304.92,-680.28 299.12,-683.33 309.96,-681.68" />
</g>

<g id="edge18" class="edge">
<title>ChargeDeptAllocation:ChargeDeptAllocation_amount_w-&gt;Charge:Charge_total_distributed_amount_w</title>
<path fill="none" stroke="#444444" stroke-width="2" stroke-dasharray="5,2" d="M119.57,-663C106.23,-663 111.04,-683.67 120.57,-693 221.95,-792.21 315.58,-628.1 439.7,-696.75 458.59,-707.2 451.12,-733.54 461.02,-743.81" />
<polygon fill="#444444" stroke="#444444" stroke-width="2" points="470.4,-747.18 459.47,-748.03 467.82,-746.78 460.82,-744.27 460.99,-743.8 461.16,-743.33 468.16,-745.84 462.51,-739.56 470.4,-747.18" />
<text xml:space="preserve" text-anchor="middle" x="429.2" y="-698.5" font-family="Helvetica,sans-Serif" font-size="10.00" fill="#444444">8</text>
</g>

<g id="node5" class="node">
<title>DeptChargeDefinition</title>
<polygon fill="#4a6fa5" stroke="none" points="109.32,-41 109.32,-57 302.57,-57 302.57,-41 109.32,-41" />
<text xml:space="preserve" text-anchor="start" x="145.95" y="-45.55" font-family="Helvetica,sans-Serif" font-weight="bold" font-size="11.00" fill="white"> DeptChargeDefinition </text>
<polygon fill="#b8cce8" stroke="none" points="109.32,-23 109.32,-41 116.32,-41 116.32,-23 109.32,-23" />
<text xml:space="preserve" text-anchor="start" x="111.32" y="-29" font-family="Helvetica,sans-Serif" font-size="11.00"> </text>
<polygon fill="#dbe4f0" stroke="none" points="116.32,-23 116.32,-41 295.57,-41 295.57,-23 116.32,-23" />
<text xml:space="preserve" text-anchor="start" x="119.32" y="-29" font-family="Helvetica,sans-Serif" font-size="11.00" fill="#1a1a2e"> total_percent </text>
<polygon fill="#b8cce8" stroke="none" points="295.57,-23 295.57,-41 302.57,-41 302.57,-23 295.57,-23" />
<text xml:space="preserve" text-anchor="start" x="297.57" y="-29" font-family="Helvetica,sans-Serif" font-size="11.00"> </text>
<polygon fill="#b8cce8" stroke="none" points="109.32,-5 109.32,-23 116.32,-23 116.32,-5 109.32,-5" />
<text xml:space="preserve" text-anchor="start" x="111.32" y="-11" font-family="Helvetica,sans-Serif" font-size="11.00"> </text>
<polygon fill="#dbe4f0" stroke="none" points="116.32,-5 116.32,-23 295.57,-23 295.57,-5 116.32,-5" />
<text xml:space="preserve" text-anchor="start" x="119.32" y="-10.55" font-family="Helvetica,sans-Serif" font-size="11.00" fill="#1a1a2e"> is_active </text>
<text xml:space="preserve" text-anchor="start" x="166.57" y="-10.55" font-family="Helvetica,sans-Serif" font-size="11.00"> </text>
<text xml:space="preserve" text-anchor="start" x="169.57" y="-10.55" font-family="Helvetica,sans-Serif" font-size="9.00" fill="#e67e22">= 1 if total_percent == Decim...</text>
<polygon fill="#b8cce8" stroke="none" points="295.57,-5 295.57,-23 302.57,-23 302.57,-5 295.57,-5" />
<text xml:space="preserve" text-anchor="start" x="297.57" y="-11" font-family="Helvetica,sans-Serif" font-size="11.00"> </text>
<polygon fill="none" stroke="#4a6fa5" points="108.32,-4 108.32,-58 303.57,-58 303.57,-4 108.32,-4" />
</g>

<g id="edge4" class="edge">
<title>ChargeDeptAllocation-&gt;DeptChargeDefinition</title>
<path fill="none" stroke="#e0e0e0" stroke-width="0.7" d="M101.55,-650.27C61.71,-642.89 22.15,-625.82 6.7,-588.5 -2.23,-566.94 -2.23,-190.06 6.7,-168.5 27.45,-118.41 77.88,-83.89 122.81,-61.96" />
<polygon fill="#e0e0e0" stroke="#e0e0e0" stroke-width="0.7" points="101.57,-650.27 110.7,-656.34 106.73,-651.12 111.21,-651.86 111.21,-651.86 111.21,-651.86 106.73,-651.12 112.17,-647.46 101.57,-650.27" />
</g>

<g id="node10" class="node">
<title>ProjectFundingLine</title>
<polygon fill="#4a6fa5" stroke="none" points="707.2,-416 707.2,-432 820.7,-432 820.7,-416 707.2,-416" />
<text xml:space="preserve" text-anchor="start" x="709.2" y="-420.55" font-family="Helvetica,sans-Serif" font-weight="bold" font-size="11.00" fill="white"> ProjectFundingLine </text>
<polygon fill="#b8cce8" stroke="none" points="707.2,-398 707.2,-416 731.36,-416 731.36,-398 707.2,-398" />
<text xml:space="preserve" text-anchor="start" x="717.78" y="-404" font-family="Helvetica,sans-Serif" font-size="11.00"> </text>
<polygon fill="#dbe4f0" stroke="none" points="731.36,-398 731.36,-416 796.53,-416 796.53,-398 731.36,-398" />
<text xml:space="preserve" text-anchor="start" x="734.36" y="-404" font-family="Helvetica,sans-Serif" font-size="11.00" fill="#1a1a2e"> percent </text>
<polygon fill="#b8cce8" stroke="none" points="796.53,-398 796.53,-416 820.7,-416 820.7,-398 796.53,-398" />
<text xml:space="preserve" text-anchor="start" x="807.11" y="-404" font-family="Helvetica,sans-Serif" font-size="11.00"> </text>
<polygon fill="none" stroke="#4a6fa5" points="706.2,-397 706.2,-433 821.7,-433 821.7,-397 706.2,-397" />
</g>

<g id="edge5" class="edge">
<title>ChargeDeptAllocation-&gt;ProjectFundingLine</title>
<path fill="none" stroke="#e0e0e0" stroke-width="0.7" d="M309.67,-637.09C338.54,-629.36 368.82,-617.91 393.7,-601 408.91,-590.66 402.92,-577.47 418.7,-568 510.55,-512.89 562.27,-580.57 656.7,-530 697.91,-507.93 731.71,-463.6 749.45,-436.89" />
<polygon fill="#e0e0e0" stroke="#e0e0e0" stroke-width="0.7" points="309.86,-637.04 299.06,-635.15 304.79,-638.33 300.4,-639.45 300.4,-639.45 300.4,-639.45 304.79,-638.33 301.28,-643.87 309.86,-637.04" />
</g>

<g id="node4" class="node">
<title>ChargeGlAllocation</title>
<polygon fill="#4a6fa5" stroke="none" points="910.45,-100 910.45,-116 1081.95,-116 1081.95,-100 910.45,-100" />
<text xml:space="preserve" text-anchor="start" x="941.82" y="-104.55" font-family="Helvetica,sans-Serif" font-weight="bold" font-size="11.00" fill="white"> ChargeGlAllocation </text>
<polygon fill="#b8cce8" stroke="none" points="910.45,-82 910.45,-100 917.45,-100 917.45,-82 910.45,-82" />
<text xml:space="preserve" text-anchor="start" x="912.45" y="-88" font-family="Helvetica,sans-Serif" font-size="11.00"> </text>
<polygon fill="#dbe4f0" stroke="none" points="917.45,-82 917.45,-100 1074.95,-100 1074.95,-82 917.45,-82" />
<text xml:space="preserve" text-anchor="start" x="920.45" y="-87.55" font-family="Helvetica,sans-Serif" font-size="11.00" fill="#1a1a2e"> amount </text>
<text xml:space="preserve" text-anchor="start" x="962.45" y="-87.55" font-family="Helvetica,sans-Serif" font-size="11.00"> </text>
<text xml:space="preserve" text-anchor="start" x="965.45" y="-87.55" font-family="Helvetica,sans-Serif" font-size="9.00" fill="#e67e22">= (            charge_dept_a...</text>
<polygon fill="#b8cce8" stroke="none" points="1074.95,-82 1074.95,-100 1081.95,-100 1081.95,-82 1074.95,-82" />
<text xml:space="preserve" text-anchor="start" x="1076.95" y="-88" font-family="Helvetica,sans-Serif" font-size="11.00"> </text>
<polygon fill="#b8cce8" stroke="none" points="910.45,-64 910.45,-82 917.45,-82 917.45,-64 910.45,-64" />
<text xml:space="preserve" text-anchor="start" x="912.45" y="-70" font-family="Helvetica,sans-Serif" font-size="11.00"> </text>
<polygon fill="#dbe4f0" stroke="none" points="917.45,-64 917.45,-82 1074.95,-82 1074.95,-64 917.45,-64" />
<text xml:space="preserve" text-anchor="start" x="920.45" y="-70" font-family="Helvetica,sans-Serif" font-size="11.00" fill="#1a1a2e"> charge_dept_allocation </text>
<polygon fill="#b8cce8" stroke="none" points="1074.95,-64 1074.95,-82 1081.95,-82 1081.95,-64 1074.95,-64" />
<text xml:space="preserve" text-anchor="start" x="1076.95" y="-70" font-family="Helvetica,sans-Serif" font-size="11.00"> </text>
<polygon fill="#b8cce8" stroke="none" points="910.45,-46 910.45,-64 917.45,-64 917.45,-46 910.45,-46" />
<text xml:space="preserve" text-anchor="start" x="912.45" y="-52" font-family="Helvetica,sans-Serif" font-size="11.00"> </text>
<polygon fill="#dbe4f0" stroke="none" points="917.45,-46 917.45,-64 1074.95,-64 1074.95,-46 917.45,-46" />
<text xml:space="preserve" text-anchor="start" x="920.45" y="-52" font-family="Helvetica,sans-Serif" font-size="11.00" fill="#1a1a2e"> percent </text>
<polygon fill="#b8cce8" stroke="none" points="1074.95,-46 1074.95,-64 1081.95,-64 1081.95,-46 1074.95,-46" />
<text xml:space="preserve" text-anchor="start" x="1076.95" y="-52" font-family="Helvetica,sans-Serif" font-size="11.00"> </text>
<polygon fill="none" stroke="#4a6fa5" points="909.45,-45 909.45,-117 1082.95,-117 1082.95,-45 909.45,-45" />
</g>

<g id="edge8" class="edge">
<title>ChargeGlAllocation-&gt;ChargeDeptAllocation</title>
<path fill="none" stroke="#e0e0e0" stroke-width="0.7" d="M892.33,-119.83C755.12,-173.54 522.7,-271.81 464.7,-342 445.69,-365 414.75,-579.86 393.7,-601 369,-625.8 333.54,-639.03 300.15,-646" />
<polygon fill="#e0e0e0" stroke="#e0e0e0" stroke-width="0.7" points="892.1,-119.92 903.05,-120.48 896.98,-118.02 901.2,-116.37 901.2,-116.37 901.2,-116.37 896.98,-118.02 899.78,-112.1 892.1,-119.92" />
</g>

<g id="node6" class="node">
<title>DeptChargeDefinitionLine</title>
<polygon fill="#4a6fa5" stroke="none" points="690.7,-49 690.7,-65 837.2,-65 837.2,-49 690.7,-49" />
<text xml:space="preserve" text-anchor="start" x="692.7" y="-53.55" font-family="Helvetica,sans-Serif" font-weight="bold" font-size="11.00" fill="white"> DeptChargeDefinitionLine </text>
<polygon fill="#b8cce8" stroke="none" points="690.7,-31 690.7,-49 725.86,-49 725.86,-31 690.7,-31" />
<text xml:space="preserve" text-anchor="start" x="706.78" y="-37" font-family="Helvetica,sans-Serif" font-size="11.00"> </text>
<polygon fill="#dbe4f0" stroke="none" points="725.86,-31 725.86,-49 802.03,-49 802.03,-31 725.86,-31" />
<text xml:space="preserve" text-anchor="start" x="728.86" y="-37" font-family="Helvetica,sans-Serif" font-size="11.00" fill="#1a1a2e"> percent </text>
<polygon fill="#b8cce8" stroke="none" points="802.03,-31 802.03,-49 837.2,-49 837.2,-31 802.03,-31" />
<text xml:space="preserve" text-anchor="start" x="818.11" y="-37" font-family="Helvetica,sans-Serif" font-size="11.00"> </text>
<polygon fill="none" stroke="#4a6fa5" points="689.7,-30 689.7,-66 838.2,-66 838.2,-30 689.7,-30" />
</g>

<g id="edge9" class="edge">
<title>ChargeGlAllocation-&gt;DeptChargeDefinitionLine</title>
<path fill="none" stroke="#e0e0e0" stroke-width="0.7" d="M891.5,-73.67C884.62,-72.86 877.8,-71.98 871.2,-71 862.98,-69.79 854.45,-68.31 845.96,-66.7" />
<polygon fill="#e0e0e0" stroke="#e0e0e0" stroke-width="0.7" points="891.44,-73.66 900.88,-79.23 896.64,-74.24 901.14,-74.74 901.14,-74.74 901.14,-74.74 896.64,-74.24 901.87,-70.29 891.44,-73.66" />
</g>

<g id="node7" class="node">
<title>GlAccount</title>
<polygon fill="#4a6fa5" stroke="none" points="158.45,-192 158.45,-208 253.45,-208 253.45,-192 158.45,-192" />
<text xml:space="preserve" text-anchor="start" x="175.2" y="-196.55" font-family="Helvetica,sans-Serif" font-weight="bold" font-size="11.00" fill="white"> GlAccount </text>
<polygon fill="#b8cce8" stroke="none" points="158.45,-174 158.45,-192 165.45,-192 165.45,-174 158.45,-174" />
<text xml:space="preserve" text-anchor="start" x="160.45" y="-180" font-family="Helvetica,sans-Serif" font-size="11.00"> </text>
<polygon fill="#dbe4f0" stroke="none" points="165.45,-174 165.45,-192 246.45,-192 246.45,-174 165.45,-174" />
<text xml:space="preserve" text-anchor="start" x="168.45" y="-180" font-family="Helvetica,sans-Serif" font-size="11.00" fill="#1a1a2e"> total_allocated </text>
<polygon fill="#b8cce8" stroke="none" points="246.45,-174 246.45,-192 253.45,-192 253.45,-174 246.45,-174" />
<text xml:space="preserve" text-anchor="start" x="248.45" y="-180" font-family="Helvetica,sans-Serif" font-size="11.00"> </text>
<polygon fill="none" stroke="#4a6fa5" points="157.45,-173 157.45,-209 254.45,-209 254.45,-173 157.45,-173" />
</g>

<g id="edge10" class="edge">
<title>ChargeGlAllocation-&gt;GlAccount</title>
<path fill="none" stroke="#e0e0e0" stroke-width="0.7" d="M891.18,-81.9C775.01,-84.52 581.86,-93.76 418.7,-125 364.43,-135.39 304.46,-154.87 262.24,-169.98" />
<polygon fill="#e0e0e0" stroke="#e0e0e0" stroke-width="0.7" points="891.25,-81.9 901.35,-86.18 896.48,-81.78 901.01,-81.69 901.01,-81.69 901.01,-81.69 896.48,-81.78 901.15,-77.18 891.25,-81.9" />
</g>

<g id="edge17" class="edge">
<title>ChargeGlAllocation:ChargeGlAllocation_amount_w-&gt;GlAccount:GlAccount_total_allocated_w</title>
<path fill="none" stroke="#444444" stroke-width="2" stroke-dasharray="5,2" d="M909.45,-91C880.45,-91 874.72,-101.8 846.2,-107 667.32,-139.59 620.74,-136.25 439.7,-153 320.79,-164 172.77,-57.18 162.51,-160.82" />
<polygon fill="#444444" stroke="#444444" stroke-width="2" points="162.06,-170.57 158.03,-160.37 161.68,-167.98 162.02,-160.55 162.52,-160.58 163.02,-160.6 162.68,-168.03 167.02,-160.78 162.06,-170.57" />
<text xml:space="preserve" text-anchor="middle" x="654.07" y="-136.75" font-family="Helvetica,sans-Serif" font-size="10.00" fill="#444444">7</text>
</g>

<g id="edge16" class="edge">
<title>DeptChargeDefinitionLine:DeptChargeDefinitionLine_percent_w-&gt;ChargeGlAllocation:ChargeGlAllocation_percent_w</title>
<path fill="none" stroke="#444444" stroke-width="1.8" d="M708.28,-30C708.28,31.3 785.94,-19.73 846.2,-31 871.25,-35.69 877.67,-49.67 897.36,-53.83" />
<polygon fill="#444444" stroke="#444444" stroke-width="1.8" points="907.26,-54.79 896.88,-58.3 904.43,-54.91 897.27,-54.22 897.31,-53.82 897.35,-53.42 904.51,-54.12 897.75,-49.34 907.26,-54.79" />
<text xml:space="preserve" text-anchor="middle" x="873.82" y="-45.54" font-family="Helvetica,sans-Serif" font-size="10.00" fill="#444444">2</text>
</g>

<g id="edge11" class="edge">
<title>DeptChargeDefinitionLine-&gt;DeptChargeDefinition</title>
<path fill="none" stroke="#e0e0e0" stroke-width="0.7" d="M755.6,-79.53C742.52,-127.17 710.82,-210.91 651.45,-200 507.92,-173.64 350.7,-103.12 267.1,-61.98" />
<polygon fill="#e0e0e0" stroke="#e0e0e0" stroke-width="0.7" points="755.59,-79.57 762.48,-71.04 756.92,-74.51 758.07,-70.13 758.07,-70.13 758.07,-70.13 756.92,-74.51 753.77,-68.76 755.59,-79.57" />
</g>

<g id="edge20" class="edge">
<title>DeptChargeDefinitionLine:DeptChargeDefinitionLine_percent_w-&gt;DeptChargeDefinition:DeptChargeDefinition_total_percent_w</title>
<path fill="none" stroke="#444444" stroke-width="2" stroke-dasharray="5,2" d="M689.7,-40C589.58,-40 564.63,-44.69 464.7,-50.75 396.58,-54.88 379.77,-59.5 311.57,-62 221.74,-65.3 173.93,-124.49 109.32,-62 103.93,-56.78 100.06,-47.94 100.09,-41.21" />
<polygon fill="#444444" stroke="#444444" stroke-width="2" points="106.7,-33.82 103.39,-44.27 105.36,-36.06 100.41,-41.61 100.03,-41.27 99.66,-40.94 104.62,-35.39 96.68,-38.27 106.7,-33.82" />
<text xml:space="preserve" text-anchor="middle" x="545.57" y="-52.5" font-family="Helvetica,sans-Serif" font-size="10.00" fill="#444444">10</text>
</g>

<g id="edge12" class="edge">
<title>DeptChargeDefinitionLine-&gt;GlAccount</title>
<path fill="none" stroke="#e0e0e0" stroke-width="0.7" d="M672.01,-71.39C555.76,-101.29 358.11,-152.12 262.29,-176.77" />
<polygon fill="#e0e0e0" stroke="#e0e0e0" stroke-width="0.7" points="672.05,-71.38 682.85,-73.25 677.12,-70.07 681.51,-68.95 681.51,-68.95 681.51,-68.95 677.12,-70.07 680.61,-64.53 672.05,-71.38" />
</g>

<g id="node9" class="node">
<title>ProjectFundingDefinition</title>
<polygon fill="#4a6fa5" stroke="none" points="109.32,-357 109.32,-373 302.57,-373 302.57,-357 109.32,-357" />
<text xml:space="preserve" text-anchor="start" x="136.95" y="-361.55" font-family="Helvetica,sans-Serif" font-weight="bold" font-size="11.00" fill="white"> ProjectFundingDefinition </text>
<polygon fill="#b8cce8" stroke="none" points="109.32,-339 109.32,-357 116.32,-357 116.32,-339 109.32,-339" />
<text xml:space="preserve" text-anchor="start" x="111.32" y="-345" font-family="Helvetica,sans-Serif" font-size="11.00"> </text>
<polygon fill="#dbe4f0" stroke="none" points="116.32,-339 116.32,-357 295.57,-357 295.57,-339 116.32,-339" />
<text xml:space="preserve" text-anchor="start" x="119.32" y="-345" font-family="Helvetica,sans-Serif" font-size="11.00" fill="#1a1a2e"> total_percent </text>
<polygon fill="#b8cce8" stroke="none" points="295.57,-339 295.57,-357 302.57,-357 302.57,-339 295.57,-339" />
<text xml:space="preserve" text-anchor="start" x="297.57" y="-345" font-family="Helvetica,sans-Serif" font-size="11.00"> </text>
<polygon fill="#b8cce8" stroke="none" points="109.32,-321 109.32,-339 116.32,-339 116.32,-321 109.32,-321" />
<text xml:space="preserve" text-anchor="start" x="111.32" y="-327" font-family="Helvetica,sans-Serif" font-size="11.00"> </text>
<polygon fill="#dbe4f0" stroke="none" points="116.32,-321 116.32,-339 295.57,-339 295.57,-321 116.32,-321" />
<text xml:space="preserve" text-anchor="start" x="119.32" y="-326.55" font-family="Helvetica,sans-Serif" font-size="11.00" fill="#1a1a2e"> is_active </text>
<text xml:space="preserve" text-anchor="start" x="166.57" y="-326.55" font-family="Helvetica,sans-Serif" font-size="11.00"> </text>
<text xml:space="preserve" text-anchor="start" x="169.57" y="-326.55" font-family="Helvetica,sans-Serif" font-size="9.00" fill="#e67e22">= 1 if total_percent == Decim...</text>
<polygon fill="#b8cce8" stroke="none" points="295.57,-321 295.57,-339 302.57,-339 302.57,-321 295.57,-321" />
<text xml:space="preserve" text-anchor="start" x="297.57" y="-327" font-family="Helvetica,sans-Serif" font-size="11.00"> </text>
<polygon fill="none" stroke="#4a6fa5" points="108.32,-320 108.32,-374 303.57,-374 303.57,-320 108.32,-320" />
</g>

<g id="edge2" class="edge">
<title>Project-&gt;ProjectFundingDefinition</title>
<path fill="none" stroke="#e0e0e0" stroke-width="0.7" d="M700.16,-721.66C615.3,-699.36 473.49,-661.2 464.7,-653 420.79,-612.06 434.52,-583.91 418.7,-526 402.85,-467.98 435.03,-436.7 393.7,-393 372.24,-370.32 341.55,-358.07 311.23,-351.66" />
<polygon fill="#e0e0e0" stroke="#e0e0e0" stroke-width="0.7" points="700.06,-721.64 708.59,-728.53 705.13,-722.97 709.51,-724.12 709.51,-724.12 709.51,-724.12 705.13,-722.97 710.88,-719.82 700.06,-721.64" />
</g>

<g id="edge15" class="edge">
<title>ProjectFundingLine:ProjectFundingLine_percent_w-&gt;ChargeDeptAllocation:ChargeDeptAllocation_percent_w</title>
<path fill="none" stroke="#444444" stroke-width="1.8" d="M706.2,-407C664.76,-407 690.66,-462.26 656.7,-486 585.2,-535.98 546.73,-497.07 464.7,-526.75 442.96,-534.61 434.86,-534.48 418.7,-551 401.32,-568.76 414.44,-587.32 393.7,-601 371.53,-615.62 177.52,-593.4 133.1,-608.87" />
<polygon fill="#444444" stroke="#444444" stroke-width="1.8" points="125.7,-615.53 130.13,-605.5 127.52,-613.36 132.87,-608.55 133.14,-608.84 133.4,-609.14 128.06,-613.95 136.15,-612.19 125.7,-615.53" />
<text xml:space="preserve" text-anchor="middle" x="545.57" y="-528.5" font-family="Helvetica,sans-Serif" font-size="10.00" fill="#444444">1</text>
</g>

<g id="edge6" class="edge">
<title>ProjectFundingLine-&gt;DeptChargeDefinition</title>
<path fill="none" stroke="#e0e0e0" stroke-width="0.7" d="M688.19,-428.11C621.11,-435.3 524.31,-433.64 464.7,-379 388.02,-308.72 456.2,-239.14 393.7,-156 362.87,-114.99 314.44,-83.13 274.62,-61.84" />
<polygon fill="#e0e0e0" stroke="#e0e0e0" stroke-width="0.7" points="688.11,-428.12 698.56,-431.44 693.31,-427.52 697.81,-427 697.81,-427 697.81,-427 693.31,-427.52 697.52,-422.5 688.11,-428.12" />
</g>

<g id="edge7" class="edge">
<title>ProjectFundingLine-&gt;ProjectFundingDefinition</title>
<path fill="none" stroke="#e0e0e0" stroke-width="0.7" d="M688.32,-405.87C591.31,-394.01 421.36,-373.22 311.53,-359.79" />
<polygon fill="#e0e0e0" stroke="#e0e0e0" stroke-width="0.7" points="688.18,-405.86 697.56,-411.54 693.38,-406.49 697.88,-407.04 697.88,-407.04 697.88,-407.04 693.38,-406.49 698.65,-402.6 688.18,-405.86" />
</g>

<g id="edge21" class="edge">
<title>ProjectFundingLine:ProjectFundingLine_percent_w-&gt;ProjectFundingDefinition:ProjectFundingDefinition_total_percent_w</title>
<path fill="none" stroke="#444444" stroke-width="2" stroke-dasharray="5,2" d="M706.2,-407C665.44,-407 665.85,-372.15 626.45,-361.75 490.96,-325.99 451.51,-370.6 311.57,-378 266.69,-380.37 141.63,-409.25 109.32,-378 103.93,-372.78 100.06,-363.94 100.09,-357.21" />
<polygon fill="#444444" stroke="#444444" stroke-width="2" points="106.7,-349.82 103.39,-360.27 105.36,-352.06 100.41,-357.61 100.03,-357.27 99.66,-356.94 104.62,-351.39 96.68,-354.27 106.7,-349.82" />
<text xml:space="preserve" text-anchor="middle" x="545.57" y="-363.5" font-family="Helvetica,sans-Serif" font-size="10.00" fill="#444444">11</text>
</g>

<g id="node11" class="node">
<title>SysProjectReq</title>
<polygon fill="#4a6fa5" stroke="none" points="501.57,-619 501.57,-635 589.57,-635 589.57,-619 501.57,-619" />
<text xml:space="preserve" text-anchor="start" x="503.57" y="-623.55" font-family="Helvetica,sans-Serif" font-weight="bold" font-size="11.00" fill="white"> SysProjectReq </text>
<polygon fill="#dbe4f0" stroke="none" points="528.91,-603 528.91,-619 562.24,-619 562.24,-603 528.91,-603" />
<text xml:space="preserve" text-anchor="start" x="542.57" y="-608" font-family="Helvetica,sans-Serif" font-size="11.00" fill="#1a1a2e">  </text>
<polygon fill="none" stroke="#4a6fa5" points="500.57,-602 500.57,-636 590.57,-636 590.57,-602 500.57,-602" />
</g>

<g id="edge13" class="edge">
<title>SysProjectReq-&gt;Project</title>
<path fill="none" stroke="#e0e0e0" stroke-width="0.7" d="M607.86,-632.78C624.24,-637.68 641.57,-644.02 656.7,-652 689.02,-669.06 720.9,-696.72 741.18,-716.05" />
<polygon fill="#e0e0e0" stroke="#e0e0e0" stroke-width="0.7" points="608.2,-632.88 599.82,-625.8 603.17,-631.44 598.81,-630.19 598.81,-630.19 598.81,-630.19 603.17,-631.44 597.35,-634.45 608.2,-632.88" />
</g>

<g id="node12" class="node">
<title>evt__identify_project</title>
<polygon fill="#e8f5e9" stroke="none" points="156.95,-410.88 156.95,-439.12 254.95,-439.12 254.95,-410.88 156.95,-410.88" />
<text xml:space="preserve" text-anchor="start" x="163.95" y="-421.62" font-family="Helvetica,sans-Serif" font-size="10.00" fill="#27ae60">⚡ _identify_project</text>
<polygon fill="none" stroke="#27ae60" points="156.95,-410.88 156.95,-439.12 254.95,-439.12 254.95,-410.88 156.95,-410.88" />
</g>

<g id="edge22" class="edge">
<title>SysProjectReq-&gt;evt__identify_project</title>
<path fill="none" stroke="#27ae60" stroke-width="1.2" stroke-dasharray="5,2" d="M523.99,-598.29C498.62,-572.52 454.47,-526.93 418.7,-486 407.05,-472.67 409.01,-463.88 393.7,-455 357.66,-434.09 311.47,-426.54 274.05,-424.24" />
<polygon fill="#27ae60" stroke="#27ae60" stroke-width="1.2" points="264.2,-423.76 274.4,-419.75 267.73,-423.83 274.19,-424.15 274.18,-424.25 274.18,-424.35 267.72,-424.03 273.96,-428.74 264.2,-423.76" />
<text xml:space="preserve" text-anchor="middle" x="429.2" y="-510.12" font-family="Helvetica,sans-Serif" font-size="10.00" fill="#27ae60">early</text>
</g>
<path d="M292.32,-624.0 C314.32,-624.0 314.32,-659.55 292.32,-659.55" stroke="#445544" stroke-width="1.2" fill="none" /><polygon points="292.32,-659.55 296.32,-663.55 296.32,-655.55" stroke="#445544" fill="#445544" /><text x="317.3" y="-637.8" font-family="Helvetica,sans-Serif" font-size="10" fill="#445544">3</text><path d="M1082.95,-52.0 C1104.95,-52.0 1104.95,-87.55 1082.95,-87.55" stroke="#445544" stroke-width="1.2" fill="none" /><polygon points="1082.95,-87.55 1086.95,-91.55 1086.95,-83.55" stroke="#445544" fill="#445544" /><text x="1108.0" y="-65.8" font-family="Helvetica,sans-Serif" font-size="10" fill="#445544">4</text><path d="M303.57,-29.0 C325.57,-29.0 325.57,-10.55 303.57,-10.55" stroke="#445544" stroke-width="1.2" fill="none" /><polygon points="303.57,-10.55 307.57,-14.55 307.57,-6.550000000000001" stroke="#445544" fill="#445544" /><text x="328.6" y="-15.8" font-family="Helvetica,sans-Serif" font-size="10" fill="#445544">5</text><path d="M303.57,-345.0 C325.57,-345.0 325.57,-326.55 303.57,-326.55" stroke="#445544" stroke-width="1.2" fill="none" /><polygon points="303.57,-326.55 307.57,-330.55 307.57,-322.55" stroke="#445544" fill="#445544" /><text x="328.6" y="-331.8" font-family="Helvetica,sans-Serif" font-size="10" fill="#445544">6</text></g>
</svg>