<svg xmlns="http://www.w3.org/2000/svg" width="181.764" height="33.834" viewBox="0 0 181.764 33.834"><defs><style>.a{fill:#1464a5;}</style></defs><g transform="translate(-27.87 -58)"><g transform="translate(64.624 65.382)"><path class="a" d="M54.347,63.915h7.764a11.141,11.141,0,0,1,5.05,1.1,8.178,8.178,0,0,1,3.427,3.122,9.518,9.518,0,0,1,0,9.312,8.187,8.187,0,0,1-3.427,3.122,11.141,11.141,0,0,1-5.05,1.1H54.347ZM61.96,78.888a7.54,7.54,0,0,0,3.436-.749,5.35,5.35,0,0,0,2.284-2.132,6.825,6.825,0,0,0,0-6.42A5.342,5.342,0,0,0,65.4,67.456a7.522,7.522,0,0,0-3.436-.749H57.645V78.888Z" transform="translate(-54.347 -62.851)"/><path class="a" d="M81.772,74.688H71.139a3.674,3.674,0,0,0,1.46,2.373,4.784,4.784,0,0,0,2.929.875,4.933,4.933,0,0,0,3.678-1.472l1.7,1.954A5.738,5.738,0,0,1,78.6,80.067a9.143,9.143,0,0,1-7.08-.329,6.372,6.372,0,0,1-2.627-2.475,6.964,6.964,0,0,1-.927-3.591,7.1,7.1,0,0,1,.9-3.565,6.422,6.422,0,0,1,2.5-2.475,7.293,7.293,0,0,1,3.6-.888,7.1,7.1,0,0,1,3.539.877,6.182,6.182,0,0,1,2.437,2.462,7.459,7.459,0,0,1,.875,3.665Q81.821,74.08,81.772,74.688Zm-9.378-4.5a3.8,3.8,0,0,0-1.283,2.4H78.8A3.74,3.74,0,0,0,77.559,70.2a3.777,3.777,0,0,0-2.589-.912A3.829,3.829,0,0,0,72.394,70.184Z" transform="translate(-48.428 -61.621)"/><path class="a" d="M100.911,68.23a6.024,6.024,0,0,1,1.5,4.454v7.764H99.237v-7.36a3.981,3.981,0,0,0-.788-2.677,2.841,2.841,0,0,0-2.26-.9,3.307,3.307,0,0,0-2.562,1.053,4.287,4.287,0,0,0-.964,3.007v6.876H89.491v-7.36a3.966,3.966,0,0,0-.788-2.677,2.835,2.835,0,0,0-2.258-.9,3.31,3.31,0,0,0-2.574,1.039,4.325,4.325,0,0,0-.954,3.021v6.876H79.746V66.9h3.021v1.727a4.906,4.906,0,0,1,1.9-1.4,6.466,6.466,0,0,1,2.539-.483,6.133,6.133,0,0,1,2.7.571A4.4,4.4,0,0,1,91.775,69a5.676,5.676,0,0,1,2.158-1.661,7,7,0,0,1,2.917-.6A5.513,5.513,0,0,1,100.911,68.23Z" transform="translate(-43.308 -61.621)"/><path class="a" d="M101.184,79.738a6.479,6.479,0,0,1-2.575-2.475,7.395,7.395,0,0,1,0-7.169,6.516,6.516,0,0,1,2.575-2.462,8.223,8.223,0,0,1,7.434,0,6.533,6.533,0,0,1,2.578,2.462,7.415,7.415,0,0,1,0,7.169,6.5,6.5,0,0,1-2.578,2.475,8.223,8.223,0,0,1-7.434,0Zm6.6-2.994a4.7,4.7,0,0,0,0-6.142,3.878,3.878,0,0,0-2.894-1.168A3.831,3.831,0,0,0,102.01,70.6a4.731,4.731,0,0,0,0,6.142,3.83,3.83,0,0,0,2.878,1.166A3.877,3.877,0,0,0,107.782,76.744Z" transform="translate(-35.513 -61.621)"/><path class="a" d="M127,74.053a4.488,4.488,0,0,1,.861,2.8,4.107,4.107,0,0,1-1.776,3.564,8.921,8.921,0,0,1-5.177,1.257h-8.83V63.915H120.4a8.183,8.183,0,0,1,4.849,1.231,3.96,3.96,0,0,1,1.7,3.389,4.459,4.459,0,0,1-.61,2.334,4.152,4.152,0,0,1-1.674,1.572A4.711,4.711,0,0,1,127,74.053ZM115.381,66.5v4.9h4.668a4.733,4.733,0,0,0,2.651-.623,2.043,2.043,0,0,0,.927-1.815,2.067,2.067,0,0,0-.927-1.839,4.734,4.734,0,0,0-2.651-.621Zm9.161,10.022q0-2.563-3.833-2.562h-5.328V79.09h5.328Q124.541,79.09,124.542,76.527Z" transform="translate(-32.946 -62.851)"/><path class="a" d="M135.378,68.18a5.541,5.541,0,0,1,1.587,4.327v7.942h-3V78.8a3.678,3.678,0,0,1-1.66,1.356,6.509,6.509,0,0,1-2.6.471,6.359,6.359,0,0,1-2.664-.521,4.091,4.091,0,0,1-1.763-1.446,3.67,3.67,0,0,1-.624-2.093,3.6,3.6,0,0,1,1.359-2.932,6.749,6.749,0,0,1,4.275-1.1h3.5v-.2a2.772,2.772,0,0,0-.851-2.182,3.67,3.67,0,0,0-2.523-.762,7.316,7.316,0,0,0-2.247.356,5.52,5.52,0,0,0-1.862.988l-1.244-2.308a7.733,7.733,0,0,1,2.561-1.244,11.394,11.394,0,0,1,3.172-.432A6.609,6.609,0,0,1,135.378,68.18Zm-2.891,9.592a2.962,2.962,0,0,0,1.3-1.561V74.637h-3.272q-2.742,0-2.74,1.8a1.61,1.61,0,0,0,.686,1.37,3.137,3.137,0,0,0,1.9.508A4.1,4.1,0,0,0,132.488,77.771Z" transform="translate(-27.481 -61.621)"/><path class="a" d="M147.866,68.243a5.907,5.907,0,0,1,1.548,4.442v7.764h-3.172v-7.36a3.814,3.814,0,0,0-.838-2.677,3.1,3.1,0,0,0-2.386-.9,3.653,3.653,0,0,0-2.764,1.053,4.194,4.194,0,0,0-1.016,3.031v6.852h-3.173V66.9h3.02v1.752a4.955,4.955,0,0,1,1.98-1.42,7.13,7.13,0,0,1,2.691-.483A5.666,5.666,0,0,1,147.866,68.243Z" transform="translate(-22.523 -61.621)"/><path class="a" d="M153.713,76.189l-2.359,2.234V82h-3.172V63.173h3.172V74.541l6.571-6.091h3.809l-5.661,5.684L162.267,82h-3.858Z" transform="translate(-17.256 -63.173)"/></g><g transform="translate(27.87 58)"><path class="a" d="M53.608,80.8c-3.209,1.854-6.251,3.652-9.351,5.347-.369.2-1.12-.047-1.581-.3q-6.486-3.5-12.924-7.1c-2.11-1.184-2.188-2.731-.307-4.251.1-.082.2-.164.307-.237,1.686-1.186,3.3-3.163,5.083-3.327,1.667-.154,3.523,1.6,5.278,2.541C44.534,75.861,48.944,78.265,53.608,80.8Z" transform="translate(-27.771 -52.382)"/><path class="a" d="M30.854,63.365c3.173-1.816,6.172-3.569,9.219-5.231a1.957,1.957,0,0,1,1.584.076q6.417,3.43,12.771,6.976c2.568,1.44,2.651,2.925.3,4.675-1.653,1.229-3.314,3.211-5.071,3.325s-3.644-1.663-5.46-2.637c-2.222-1.194-4.424-2.426-6.645-3.622C35.406,65.773,33.25,64.639,30.854,63.365Z" transform="translate(-26.574 -58)"/><path class="a" d="M27.883,75.883c0-3.6-.039-6.939.02-10.273a1.7,1.7,0,0,1,2.182-1.823,20.034,20.034,0,0,1,4.4,1.366c1.785.825,3.446,1.917,5.243,2.942Z" transform="translate(-27.87 -55.509)"/><path class="a" d="M52.514,67.331c0,3.434.049,6.529-.016,9.622-.05,2.383-1.135,3.267-3.41,2.39-2.869-1.108-5.581-2.618-8.58-4.063Z" transform="translate(-22.378 -53.945)"/></g></g></svg>